<svg width="20" height="20" viewBox="0 0 20 20" fill="none" xmlns="http://www.w3.org/2000/svg">
<g clip-path="url(#clip0_761_1596)">
<path d="M15 7.08325L19.1666 7.91659V2.08325L15 2.91659V7.08325Z" stroke="#1E1E1E" stroke-linecap="round" stroke-linejoin="round"/>
<path d="M15 2.91666L5 1.27249C4.47642 1.21489 3.94658 1.26823 3.44499 1.42905C2.9434 1.58987 2.48132 1.85455 2.08884 2.20586C1.69637 2.55717 1.3823 2.98722 1.16711 3.46799C0.95192 3.94877 0.840428 4.46949 0.839898 4.99623C0.839368 5.52297 0.949812 6.04391 1.16404 6.52512C1.37826 7.00633 1.69146 7.43701 2.08323 7.7891C2.47499 8.1412 2.93654 8.40681 3.43781 8.56864C3.93907 8.73047 4.46881 8.78488 4.9925 8.72833L15 7.08333" stroke="#1E1E1E" stroke-linecap="round" stroke-linejoin="round"/>
<path d="M1.6925 7.38843L2.43667 14.6526C2.45406 14.8614 2.54948 15.056 2.70391 15.1976C2.85835 15.3392 3.06047 15.4175 3.27 15.4168H5.76084C5.87634 15.4172 5.99067 15.3935 6.09656 15.3474C6.20246 15.3013 6.2976 15.2336 6.37596 15.1488C6.45432 15.0639 6.51418 14.9637 6.55175 14.8544C6.58931 14.7452 6.60376 14.6294 6.59417 14.5143L5.96 8.57009" stroke="#1E1E1E" stroke-linecap="round" stroke-linejoin="round"/>
<path d="M1.25004 18.7501H2.91671C3.35873 18.7501 3.78266 18.5745 4.09522 18.2619C4.40778 17.9494 4.58337 17.5254 4.58337 17.0834V15.4167" stroke="#1E1E1E" stroke-linecap="round" stroke-linejoin="round"/>
</g>
<defs>
<clipPath id="clip0_761_1596">
<rect width="20" height="20" fill="white" transform="matrix(-1 0 0 1 20 0)"/>
</clipPath>
</defs>
</svg>
