<svg width="14" height="18" viewBox="0 0 14 18" fill="none" xmlns="http://www.w3.org/2000/svg">
<path d="M7.04893 0C8.11066 0 8.97136 0.863451 8.97136 1.92857C8.97136 2.99369 8.11066 3.85714 7.04893 3.85714C5.9872 3.85714 5.12649 2.99369 5.12649 1.92857C5.12649 0.863451 5.9872 0 7.04893 0ZM13.8828 5.87979L12.1754 9L8.33055 7.71429L7.04893 12.8571L9.61218 15.4286C9.95973 15.8208 10.2095 16.0184 10.253 16.7143C10.253 18 8.97136 18 8.97136 18H1.28162C1.28162 18 0 18 0 16.7143C0 15.4286 1.28162 15.4286 1.28162 15.4286H5.12649L3.84487 14.1429C2.56325 12.8571 2.65426 12.2494 2.80355 11.5714L3.84487 6.42857C4.15168 5.27989 4.9499 4.71902 6.40812 4.95L7.68974 5.14286L11.5346 7.07143L12.8162 5.14286C13.3816 4.38735 14.3327 5.03773 13.8828 5.87979Z" fill="#1E1E1E"/>
</svg>
