<svg width="279" height="318" viewBox="0 0 279 318" fill="none" xmlns="http://www.w3.org/2000/svg">
<path d="M167.295 268.001C171.355 261.442 186.347 252.107 205.399 243.64C225.075 234.894 242.773 206.473 249.749 191.794C254.121 181.591 259.618 153.19 246.625 121.208C242.773 109.756 229.26 82.8549 206.023 66.8639L195.716 59.9928" stroke="white" stroke-width="3" stroke-linecap="round"/>
<mask id="path-2-inside-1_1008_1289" fill="white">
<path fill-rule="evenodd" clip-rule="evenodd" d="M227.193 252.605C223.8 247.868 218.515 244.508 212.277 243.731C206.04 242.954 200.092 244.915 195.641 248.674C199.034 253.411 204.319 256.771 210.556 257.548C216.794 258.325 222.742 256.364 227.193 252.605Z"/>
</mask>
<path fill-rule="evenodd" clip-rule="evenodd" d="M227.193 252.605C223.8 247.868 218.515 244.508 212.277 243.731C206.04 242.954 200.092 244.915 195.641 248.674C199.034 253.411 204.319 256.771 210.556 257.548C216.794 258.325 222.742 256.364 227.193 252.605Z" fill="white"/>
<path d="M227.193 252.605L227.838 253.369L228.543 252.773L228.006 252.022L227.193 252.605ZM195.641 248.674L194.996 247.91L194.29 248.506L194.828 249.256L195.641 248.674ZM212.154 244.723C218.103 245.464 223.143 248.667 226.38 253.187L228.006 252.022C224.457 247.068 218.927 243.551 212.401 242.738L212.154 244.723ZM196.286 249.438C200.533 245.851 206.204 243.982 212.154 244.723L212.401 242.738C205.875 241.925 199.651 243.978 194.996 247.91L196.286 249.438ZM210.68 256.556C204.731 255.815 199.691 252.611 196.454 248.092L194.828 249.256C198.376 254.211 203.907 257.727 210.433 258.54L210.68 256.556ZM226.547 251.841C222.301 255.428 216.629 257.297 210.68 256.556L210.433 258.54C216.959 259.353 223.183 257.301 227.838 253.369L226.547 251.841Z" fill="white" mask="url(#path-2-inside-1_1008_1289)"/>
<mask id="path-4-inside-2_1008_1289" fill="white">
<path fill-rule="evenodd" clip-rule="evenodd" d="M199.307 217.486C194.647 220.984 191.406 226.342 190.769 232.596C190.132 238.849 192.225 244.751 196.083 249.117C200.742 245.619 203.983 240.261 204.621 234.007C205.258 227.754 203.165 221.852 199.307 217.486Z"/>
</mask>
<path fill-rule="evenodd" clip-rule="evenodd" d="M199.307 217.486C194.647 220.984 191.406 226.342 190.769 232.596C190.132 238.849 192.225 244.751 196.083 249.117C200.742 245.619 203.983 240.261 204.621 234.007C205.258 227.754 203.165 221.852 199.307 217.486Z" fill="white"/>
<path d="M199.307 217.486L200.056 216.824L199.445 216.132L198.706 216.686L199.307 217.486ZM196.083 249.117L195.333 249.779L195.945 250.471L196.683 249.917L196.083 249.117ZM191.764 232.697C192.372 226.733 195.461 221.623 199.907 218.286L198.706 216.686C193.833 220.345 190.441 225.952 189.774 232.494L191.764 232.697ZM196.832 248.455C193.151 244.289 191.156 238.661 191.764 232.697L189.774 232.494C189.107 239.037 191.298 245.213 195.333 249.779L196.832 248.455ZM203.626 233.906C203.018 239.87 199.928 244.98 195.482 248.317L196.683 249.917C201.557 246.259 204.949 240.651 205.616 234.109L203.626 233.906ZM198.557 218.148C202.238 222.314 204.234 227.942 203.626 233.906L205.616 234.109C206.282 227.566 204.091 221.39 200.056 216.824L198.557 218.148Z" fill="white" mask="url(#path-4-inside-2_1008_1289)"/>
<mask id="path-6-inside-3_1008_1289" fill="white">
<path fill-rule="evenodd" clip-rule="evenodd" d="M243.551 237.936C240.054 241.729 235.044 244.106 229.478 244.11C223.912 244.114 218.899 241.743 215.397 237.955C218.894 234.162 223.904 231.785 229.47 231.781C235.036 231.777 240.048 234.148 243.551 237.936Z"/>
</mask>
<path fill-rule="evenodd" clip-rule="evenodd" d="M243.551 237.936C240.054 241.729 235.044 244.106 229.478 244.11C223.912 244.114 218.899 241.743 215.397 237.955C218.894 234.162 223.904 231.785 229.47 231.781C235.036 231.777 240.048 234.148 243.551 237.936Z" fill="white"/>
<path d="M243.551 237.936L244.286 238.614L244.912 237.935L244.285 237.257L243.551 237.936ZM215.397 237.955L214.662 237.277L214.036 237.956L214.663 238.634L215.397 237.955ZM242.815 237.258C239.5 240.854 234.753 243.106 229.477 243.11L229.479 245.11C235.335 245.106 240.608 242.603 244.286 238.614L242.815 237.258ZM229.477 243.11C224.202 243.113 219.452 240.868 216.132 237.276L214.663 238.634C218.347 242.618 223.622 245.114 229.479 245.11L229.477 243.11ZM216.132 238.633C219.448 235.036 224.195 232.784 229.47 232.781L229.469 230.781C223.613 230.785 218.34 233.287 214.662 237.277L216.132 238.633ZM229.47 232.781C234.746 232.777 239.496 235.023 242.816 238.615L244.285 237.257C240.601 233.272 235.325 230.777 229.469 230.781L229.47 232.781Z" fill="white" mask="url(#path-6-inside-3_1008_1289)"/>
<mask id="path-8-inside-4_1008_1289" fill="white">
<path fill-rule="evenodd" clip-rule="evenodd" d="M214.685 209.445C210.987 213.042 208.745 218.114 208.89 223.678C209.036 229.242 211.54 234.19 215.421 237.589C219.119 233.991 221.361 228.919 221.216 223.355C221.07 217.791 218.565 212.844 214.685 209.445Z"/>
</mask>
<path fill-rule="evenodd" clip-rule="evenodd" d="M214.685 209.445C210.987 213.042 208.745 218.114 208.89 223.678C209.036 229.242 211.54 234.19 215.421 237.589C219.119 233.991 221.361 228.919 221.216 223.355C221.07 217.791 218.565 212.844 214.685 209.445Z" fill="white"/>
<path d="M214.685 209.445L215.343 208.693L214.649 208.084L213.987 208.728L214.685 209.445ZM215.421 237.589L214.762 238.341L215.457 238.949L216.119 238.306L215.421 237.589ZM209.89 223.652C209.752 218.379 211.876 213.573 215.382 210.162L213.987 208.728C210.098 212.512 207.737 217.85 207.891 223.705L209.89 223.652ZM216.08 236.837C212.4 233.614 210.028 228.926 209.89 223.652L207.891 223.705C208.044 229.559 210.68 234.766 214.762 238.341L216.08 236.837ZM220.216 223.382C220.354 228.655 218.23 233.461 214.724 236.872L216.119 238.306C220.008 234.522 222.368 229.184 222.215 223.329L220.216 223.382ZM214.026 210.197C217.705 213.42 220.078 218.108 220.216 223.382L222.215 223.329C222.062 217.475 219.425 212.268 215.343 208.693L214.026 210.197Z" fill="white" mask="url(#path-8-inside-4_1008_1289)"/>
<mask id="path-10-inside-5_1008_1289" fill="white">
<path fill-rule="evenodd" clip-rule="evenodd" d="M257.142 221.663C253.277 218.246 248.051 216.39 242.514 216.952C236.977 217.515 232.231 220.382 229.132 224.507C232.997 227.925 238.222 229.78 243.76 229.218C249.297 228.656 254.043 225.788 257.142 221.663Z"/>
</mask>
<path fill-rule="evenodd" clip-rule="evenodd" d="M257.142 221.663C253.277 218.246 248.051 216.39 242.514 216.952C236.977 217.515 232.231 220.382 229.132 224.507C232.997 227.925 238.222 229.78 243.76 229.218C249.297 228.656 254.043 225.788 257.142 221.663Z" fill="white"/>
<path d="M257.142 221.663L257.941 222.264L258.496 221.526L257.804 220.914L257.142 221.663ZM229.132 224.507L228.333 223.906L227.778 224.645L228.47 225.256L229.132 224.507ZM242.615 217.947C247.863 217.414 252.815 219.172 256.479 222.413L257.804 220.914C253.739 217.319 248.239 215.366 242.413 215.957L242.615 217.947ZM229.932 225.108C232.87 221.197 237.367 218.48 242.615 217.947L242.413 215.957C236.587 216.549 231.592 219.568 228.333 223.906L229.932 225.108ZM243.659 228.223C238.41 228.756 233.459 226.999 229.795 223.758L228.47 225.256C232.535 228.851 238.034 230.805 243.861 230.213L243.659 228.223ZM256.342 221.063C253.404 224.974 248.907 227.69 243.659 228.223L243.861 230.213C249.687 229.622 254.682 226.602 257.941 222.264L256.342 221.063Z" fill="white" mask="url(#path-10-inside-5_1008_1289)"/>
<mask id="path-12-inside-6_1008_1289" fill="white">
<path fill-rule="evenodd" clip-rule="evenodd" d="M223.912 195.618C220.962 199.851 219.721 205.255 220.918 210.691C222.115 216.127 225.511 220.51 229.966 223.113C232.915 218.88 234.156 213.475 232.959 208.04C231.762 202.604 228.366 198.22 223.912 195.618Z"/>
</mask>
<path fill-rule="evenodd" clip-rule="evenodd" d="M223.912 195.618C220.962 199.851 219.721 205.255 220.918 210.691C222.115 216.127 225.511 220.51 229.966 223.113C232.915 218.88 234.156 213.475 232.959 208.04C231.762 202.604 228.366 198.22 223.912 195.618Z" fill="white"/>
<path d="M223.912 195.618L224.416 194.754L223.619 194.289L223.091 195.046L223.912 195.618ZM229.966 223.113L229.461 223.976L230.258 224.442L230.786 223.685L229.966 223.113ZM221.895 210.476C220.761 205.324 221.936 200.203 224.732 196.19L223.091 195.046C219.989 199.498 218.682 205.187 219.942 210.906L221.895 210.476ZM230.47 222.249C226.247 219.782 223.029 215.628 221.895 210.476L219.942 210.906C221.201 216.626 224.776 221.239 229.461 223.976L230.47 222.249ZM231.983 208.255C233.117 213.407 231.942 218.528 229.145 222.541L230.786 223.685C233.889 219.232 235.195 213.544 233.936 207.825L231.983 208.255ZM223.407 196.481C227.631 198.949 230.848 203.103 231.983 208.255L233.936 207.825C232.676 202.105 229.101 197.492 224.416 194.754L223.407 196.481Z" fill="white" mask="url(#path-12-inside-6_1008_1289)"/>
<mask id="path-14-inside-7_1008_1289" fill="white">
<path fill-rule="evenodd" clip-rule="evenodd" d="M267.256 200.833C262.831 198.179 257.354 197.311 252.013 198.876C246.672 200.442 242.531 204.129 240.239 208.751C244.663 211.404 250.14 212.273 255.481 210.707C260.822 209.142 264.964 205.455 267.256 200.833Z"/>
</mask>
<path fill-rule="evenodd" clip-rule="evenodd" d="M267.256 200.833C262.831 198.179 257.354 197.311 252.013 198.876C246.672 200.442 242.531 204.129 240.239 208.751C244.663 211.404 250.14 212.273 255.481 210.707C260.822 209.142 264.964 205.455 267.256 200.833Z" fill="white"/>
<path d="M267.256 200.833L268.152 201.277L268.562 200.45L267.77 199.975L267.256 200.833ZM240.239 208.751L239.343 208.307L238.933 209.134L239.724 209.608L240.239 208.751ZM252.294 199.836C257.357 198.352 262.546 199.175 266.741 201.691L267.77 199.975C263.116 197.184 257.352 196.269 251.732 197.917L252.294 199.836ZM241.134 209.195C243.308 204.813 247.232 201.32 252.294 199.836L251.732 197.917C246.112 199.564 241.754 203.445 239.343 208.307L241.134 209.195ZM255.2 209.748C250.138 211.232 244.948 210.409 240.753 207.893L239.724 209.608C244.378 212.399 250.143 213.314 255.763 211.667L255.2 209.748ZM266.36 200.389C264.186 204.771 260.262 208.264 255.2 209.748L255.763 211.667C261.382 210.02 265.741 206.138 268.152 201.277L266.36 200.389Z" fill="white" mask="url(#path-14-inside-7_1008_1289)"/>
<mask id="path-16-inside-8_1008_1289" fill="white">
<path fill-rule="evenodd" clip-rule="evenodd" d="M243.16 206.295C238.149 205.068 233.646 201.832 230.952 196.962C228.257 192.091 227.909 186.557 229.532 181.66C234.543 182.887 239.046 186.123 241.741 190.994C244.435 195.864 244.783 201.398 243.16 206.295Z"/>
</mask>
<path fill-rule="evenodd" clip-rule="evenodd" d="M243.16 206.295C238.149 205.068 233.646 201.832 230.952 196.962C228.257 192.091 227.909 186.557 229.532 181.66C234.543 182.887 239.046 186.123 241.741 190.994C244.435 195.864 244.783 201.398 243.16 206.295Z" fill="white"/>
<path d="M243.16 206.295L242.922 207.267L243.819 207.486L244.11 206.61L243.16 206.295ZM229.532 181.66L229.77 180.689L228.873 180.469L228.583 181.345L229.532 181.66ZM243.398 205.324C238.647 204.16 234.38 201.094 231.827 196.478L230.077 197.446C232.912 202.571 237.652 205.976 242.922 207.267L243.398 205.324ZM231.827 196.478C229.273 191.862 228.942 186.618 230.481 181.975L228.583 181.345C226.876 186.496 227.242 192.321 230.077 197.446L231.827 196.478ZM229.294 182.631C234.045 183.795 238.312 186.861 240.866 191.478L242.616 190.509C239.781 185.385 235.04 181.979 229.77 180.689L229.294 182.631ZM240.866 191.478C243.419 196.094 243.75 201.337 242.211 205.981L244.11 206.61C245.817 201.459 245.45 195.634 242.616 190.509L240.866 191.478Z" fill="white" mask="url(#path-16-inside-8_1008_1289)"/>
<mask id="path-18-inside-9_1008_1289" fill="white">
<path fill-rule="evenodd" clip-rule="evenodd" d="M275.929 181.113C271.135 179.206 265.59 179.23 260.57 181.634C255.55 184.039 252.056 188.344 250.538 193.275C255.332 195.182 260.877 195.158 265.897 192.753C270.916 190.349 274.41 186.043 275.929 181.113Z"/>
</mask>
<path fill-rule="evenodd" clip-rule="evenodd" d="M275.929 181.113C271.135 179.206 265.59 179.23 260.57 181.634C255.55 184.039 252.056 188.344 250.538 193.275C255.332 195.182 260.877 195.158 265.897 192.753C270.916 190.349 274.41 186.043 275.929 181.113Z" fill="white"/>
<path d="M275.929 181.113L276.885 181.407L277.156 180.525L276.299 180.184L275.929 181.113ZM250.538 193.275L249.582 192.98L249.31 193.863L250.168 194.204L250.538 193.275ZM261.002 182.536C265.76 180.257 271.014 180.234 275.559 182.042L276.299 180.184C271.256 178.178 265.42 178.202 260.138 180.732L261.002 182.536ZM251.494 193.569C252.933 188.894 256.245 184.815 261.002 182.536L260.138 180.732C254.856 183.262 251.18 187.795 249.582 192.98L251.494 193.569ZM265.465 191.851C260.707 194.13 255.453 194.154 250.907 192.346L250.168 194.204C255.211 196.21 261.047 196.185 266.329 193.655L265.465 191.851ZM274.973 180.818C273.533 185.493 270.222 189.573 265.465 191.851L266.329 193.655C271.61 191.125 275.287 186.593 276.885 181.407L274.973 180.818Z" fill="white" mask="url(#path-18-inside-9_1008_1289)"/>
<mask id="path-20-inside-10_1008_1289" fill="white">
<path fill-rule="evenodd" clip-rule="evenodd" d="M231.538 168.124C231.428 173.282 233.39 178.468 237.399 182.33C241.407 186.191 246.663 187.958 251.813 187.657C251.922 182.499 249.96 177.312 245.952 173.451C241.944 169.589 236.688 167.822 231.538 168.124Z"/>
</mask>
<path fill-rule="evenodd" clip-rule="evenodd" d="M231.538 168.124C231.428 173.282 233.39 178.468 237.399 182.33C241.407 186.191 246.663 187.958 251.813 187.657C251.922 182.499 249.96 177.312 245.952 173.451C241.944 169.589 236.688 167.822 231.538 168.124Z" fill="white"/>
<path d="M231.538 168.124L231.479 167.126L230.558 167.18L230.538 168.103L231.538 168.124ZM251.813 187.657L251.871 188.655L252.793 188.601L252.813 187.678L251.813 187.657ZM238.092 181.61C234.293 177.95 232.434 173.036 232.538 168.145L230.538 168.103C230.423 173.528 232.487 178.987 236.705 183.05L238.092 181.61ZM251.754 186.658C246.871 186.944 241.891 185.269 238.092 181.61L236.705 183.05C240.922 187.113 246.454 188.972 251.871 188.655L251.754 186.658ZM245.258 174.171C249.057 177.831 250.917 182.745 250.813 187.635L252.813 187.678C252.928 182.253 250.863 176.794 246.646 172.73L245.258 174.171ZM231.596 169.122C236.479 168.836 241.459 170.511 245.258 174.171L246.646 172.73C242.428 168.668 236.896 166.808 231.479 167.126L231.596 169.122Z" fill="white" mask="url(#path-20-inside-10_1008_1289)"/>
<mask id="path-22-inside-11_1008_1289" fill="white">
<path fill-rule="evenodd" clip-rule="evenodd" d="M273.578 159.996C268.855 159.308 263.87 160.518 259.868 163.758C255.867 166.998 253.646 171.621 253.336 176.383C258.059 177.072 263.044 175.862 267.045 172.622C271.047 169.382 273.268 164.758 273.578 159.996Z"/>
</mask>
<path fill-rule="evenodd" clip-rule="evenodd" d="M273.578 159.996C268.855 159.308 263.87 160.518 259.868 163.758C255.867 166.998 253.646 171.621 253.336 176.383C258.059 177.072 263.044 175.862 267.045 172.622C271.047 169.382 273.268 164.758 273.578 159.996Z" fill="white"/>
<path d="M273.578 159.996L274.575 160.061L274.635 159.14L273.722 159.007L273.578 159.996ZM253.336 176.383L252.338 176.318L252.278 177.24L253.192 177.373L253.336 176.383ZM260.498 164.535C264.273 161.478 268.975 160.336 273.433 160.986L273.722 159.007C268.735 158.28 263.467 159.558 259.239 162.981L260.498 164.535ZM254.334 176.448C254.626 171.953 256.722 167.592 260.498 164.535L259.239 162.981C255.012 166.403 252.665 171.29 252.338 176.318L254.334 176.448ZM266.416 171.844C262.64 174.901 257.939 176.044 253.48 175.394L253.192 177.373C258.179 178.1 263.447 176.822 267.675 173.399L266.416 171.844ZM272.58 159.931C272.287 164.427 270.192 168.788 266.416 171.844L267.675 173.399C271.902 169.976 274.248 165.09 274.575 160.061L272.58 159.931Z" fill="white" mask="url(#path-22-inside-11_1008_1289)"/>
<mask id="path-24-inside-12_1008_1289" fill="white">
<path fill-rule="evenodd" clip-rule="evenodd" d="M231.973 154.888C233.036 159.541 235.964 163.752 240.43 166.315C244.896 168.877 250.009 169.279 254.562 167.849C253.499 163.196 250.57 158.984 246.105 156.422C241.639 153.86 236.526 153.458 231.973 154.888Z"/>
</mask>
<path fill-rule="evenodd" clip-rule="evenodd" d="M231.973 154.888C233.036 159.541 235.964 163.752 240.43 166.315C244.896 168.877 250.009 169.279 254.562 167.849C253.499 163.196 250.57 158.984 246.105 156.422C241.639 153.86 236.526 153.458 231.973 154.888Z" fill="white"/>
<path d="M231.973 154.888L231.673 153.934L230.793 154.211L230.998 155.111L231.973 154.888ZM254.562 167.849L254.861 168.803L255.742 168.526L255.536 167.626L254.562 167.849ZM240.928 165.447C236.714 163.03 233.951 159.057 232.948 154.665L230.998 155.111C232.121 160.024 235.214 164.475 239.932 167.182L240.928 165.447ZM254.262 166.895C249.964 168.245 245.141 167.865 240.928 165.447L239.932 167.182C244.65 169.889 250.054 170.313 254.861 168.803L254.262 166.895ZM245.607 157.289C249.821 159.707 252.583 163.679 253.587 168.071L255.536 167.626C254.414 162.713 251.32 158.261 246.602 155.555L245.607 157.289ZM232.273 155.842C236.57 154.492 241.393 154.872 245.607 157.289L246.602 155.555C241.885 152.848 236.481 152.424 231.673 153.934L232.273 155.842Z" fill="white" mask="url(#path-24-inside-12_1008_1289)"/>
<mask id="path-26-inside-13_1008_1289" fill="white">
<path fill-rule="evenodd" clip-rule="evenodd" d="M231.303 139.298C232.409 143.941 235.376 148.125 239.865 150.646C244.354 153.166 249.471 153.521 254.011 152.049C252.905 147.406 249.938 143.222 245.449 140.701C240.959 138.18 235.842 137.826 231.303 139.298Z"/>
</mask>
<path fill-rule="evenodd" clip-rule="evenodd" d="M231.303 139.298C232.409 143.941 235.376 148.125 239.865 150.646C244.354 153.166 249.471 153.521 254.011 152.049C252.905 147.406 249.938 143.222 245.449 140.701C240.959 138.18 235.842 137.826 231.303 139.298Z" fill="white"/>
<path d="M231.303 139.298L230.994 138.347L230.116 138.632L230.33 139.53L231.303 139.298ZM254.011 152.049L254.319 153L255.198 152.715L254.984 151.817L254.011 152.049ZM240.355 149.774C236.119 147.395 233.319 143.449 232.275 139.066L230.33 139.53C231.498 144.432 234.633 148.855 239.375 151.518L240.355 149.774ZM253.702 151.097C249.417 152.487 244.59 152.152 240.355 149.774L239.375 151.518C244.118 154.181 249.526 154.555 254.319 153L253.702 151.097ZM244.959 141.573C249.195 143.951 251.994 147.898 253.038 152.28L254.984 151.817C253.816 146.914 250.681 142.492 245.938 139.829L244.959 141.573ZM231.611 140.249C235.896 138.859 240.723 139.195 244.959 141.573L245.938 139.829C241.195 137.166 235.788 136.792 230.994 138.347L231.611 140.249Z" fill="white" mask="url(#path-26-inside-13_1008_1289)"/>
<mask id="path-28-inside-14_1008_1289" fill="white">
<path fill-rule="evenodd" clip-rule="evenodd" d="M271.733 139.766C266.973 140.099 262.36 142.344 259.14 146.361C255.921 150.379 254.736 155.37 255.447 160.088C260.208 159.755 264.821 157.511 268.04 153.493C271.26 149.475 272.445 144.485 271.733 139.766Z"/>
</mask>
<path fill-rule="evenodd" clip-rule="evenodd" d="M271.733 139.766C266.973 140.099 262.36 142.344 259.14 146.361C255.921 150.379 254.736 155.37 255.447 160.088C260.208 159.755 264.821 157.511 268.04 153.493C271.26 149.475 272.445 144.485 271.733 139.766Z" fill="white"/>
<path d="M271.733 139.766L272.722 139.617L272.584 138.704L271.663 138.768L271.733 139.766ZM255.447 160.088L254.459 160.238L254.596 161.15L255.517 161.086L255.447 160.088ZM259.921 146.987C262.959 143.196 267.309 141.078 271.803 140.763L271.663 138.768C266.636 139.12 261.761 141.491 258.36 145.736L259.921 146.987ZM256.436 159.939C255.764 155.485 256.883 150.778 259.921 146.987L258.36 145.736C254.959 149.98 253.707 155.254 254.459 160.238L256.436 159.939ZM267.26 152.868C264.222 156.659 259.872 158.776 255.378 159.091L255.517 161.086C260.545 160.734 265.419 158.363 268.821 154.118L267.26 152.868ZM270.744 139.915C271.416 144.37 270.298 149.077 267.26 152.868L268.821 154.118C272.222 149.874 273.474 144.6 272.722 139.617L270.744 139.915Z" fill="white" mask="url(#path-28-inside-14_1008_1289)"/>
<mask id="path-30-inside-15_1008_1289" fill="white">
<path fill-rule="evenodd" clip-rule="evenodd" d="M268.611 120.402C263.85 120.735 259.237 122.979 256.017 126.997C252.797 131.015 251.612 136.005 252.324 140.724C257.085 140.391 261.698 138.147 264.918 134.129C268.137 130.111 269.322 125.121 268.611 120.402Z"/>
</mask>
<path fill-rule="evenodd" clip-rule="evenodd" d="M268.611 120.402C263.85 120.735 259.237 122.979 256.017 126.997C252.797 131.015 251.612 136.005 252.324 140.724C257.085 140.391 261.698 138.147 264.918 134.129C268.137 130.111 269.322 125.121 268.611 120.402Z" fill="white"/>
<path d="M268.611 120.402L269.599 120.253L269.462 119.34L268.541 119.404L268.611 120.402ZM252.324 140.724L251.335 140.873L251.473 141.786L252.394 141.722L252.324 140.724ZM256.797 127.623C259.835 123.831 264.186 121.714 268.68 121.399L268.541 119.404C263.513 119.756 258.638 122.127 255.236 126.372L256.797 127.623ZM253.313 140.575C252.641 136.121 253.759 131.413 256.797 127.623L255.236 126.372C251.835 130.616 250.583 135.89 251.335 140.873L253.313 140.575ZM264.137 133.504C261.099 137.295 256.748 139.412 252.254 139.727L252.394 141.722C257.421 141.37 262.296 138.999 265.698 134.754L264.137 133.504ZM267.622 120.551C268.294 125.005 267.175 129.713 264.137 133.504L265.698 134.754C269.099 130.51 270.351 125.236 269.599 120.253L267.622 120.551Z" fill="white" mask="url(#path-30-inside-15_1008_1289)"/>
<mask id="path-32-inside-16_1008_1289" fill="white">
<path fill-rule="evenodd" clip-rule="evenodd" d="M225.614 126.716C227.833 130.941 231.742 134.262 236.716 135.595C241.689 136.928 246.734 136.007 250.769 133.458C248.55 129.233 244.64 125.912 239.667 124.579C234.694 123.246 229.648 124.167 225.614 126.716Z"/>
</mask>
<path fill-rule="evenodd" clip-rule="evenodd" d="M225.614 126.716C227.833 130.941 231.742 134.262 236.716 135.595C241.689 136.928 246.734 136.007 250.769 133.458C248.55 129.233 244.64 125.912 239.667 124.579C234.694 123.246 229.648 124.167 225.614 126.716Z" fill="white"/>
<path d="M225.614 126.716L225.08 125.871L224.299 126.364L224.729 127.181L225.614 126.716ZM250.769 133.458L251.303 134.304L252.084 133.81L251.654 132.993L250.769 133.458ZM236.975 134.629C232.282 133.372 228.594 130.239 226.499 126.251L224.729 127.181C227.072 131.643 231.203 135.153 236.457 136.561L236.975 134.629ZM250.235 132.613C246.426 135.019 241.667 135.887 236.975 134.629L236.457 136.561C241.71 137.969 247.043 136.995 251.303 134.304L250.235 132.613ZM239.408 125.545C244.101 126.802 247.789 129.935 249.884 133.923L251.654 132.993C249.311 128.531 245.18 125.021 239.926 123.613L239.408 125.545ZM226.148 127.561C229.957 125.156 234.716 124.287 239.408 125.545L239.926 123.613C234.673 122.205 229.34 123.179 225.08 125.871L226.148 127.561Z" fill="white" mask="url(#path-32-inside-16_1008_1289)"/>
<mask id="path-34-inside-17_1008_1289" fill="white">
<path fill-rule="evenodd" clip-rule="evenodd" d="M260.272 101.901C255.686 103.223 251.645 106.383 249.337 110.986C247.03 115.589 246.916 120.717 248.599 125.182C253.185 123.86 257.227 120.7 259.534 116.097C261.842 111.494 261.956 106.366 260.272 101.901Z"/>
</mask>
<path fill-rule="evenodd" clip-rule="evenodd" d="M260.272 101.901C255.686 103.223 251.645 106.383 249.337 110.986C247.03 115.589 246.916 120.717 248.599 125.182C253.185 123.86 257.227 120.7 259.534 116.097C261.842 111.494 261.956 106.366 260.272 101.901Z" fill="white"/>
<path d="M260.272 101.901L261.208 101.548L260.882 100.684L259.995 100.94L260.272 101.901ZM248.599 125.182L247.664 125.535L247.989 126.399L248.876 126.143L248.599 125.182ZM250.231 111.434C252.409 107.091 256.22 104.11 260.549 102.862L259.995 100.94C255.152 102.336 250.881 105.675 248.443 110.538L250.231 111.434ZM249.535 124.829C247.946 120.614 248.054 115.777 250.231 111.434L248.443 110.538C246.006 115.4 245.886 120.82 247.664 125.535L249.535 124.829ZM258.64 115.649C256.463 119.992 252.652 122.973 248.322 124.221L248.876 126.143C253.719 124.747 257.991 121.408 260.428 116.545L258.64 115.649ZM259.337 102.254C260.926 106.469 260.818 111.306 258.64 115.649L260.428 116.545C262.866 111.683 262.986 106.263 261.208 101.548L259.337 102.254Z" fill="white" mask="url(#path-34-inside-17_1008_1289)"/>
<mask id="path-36-inside-18_1008_1289" fill="white">
<path fill-rule="evenodd" clip-rule="evenodd" d="M219.482 108.57C221.614 112.84 225.454 116.24 230.399 117.675C235.343 119.109 240.407 118.292 244.493 115.826C242.361 111.557 238.521 108.156 233.576 106.721C228.631 105.287 223.568 106.105 219.482 108.57Z"/>
</mask>
<path fill-rule="evenodd" clip-rule="evenodd" d="M219.482 108.57C221.614 112.84 225.454 116.24 230.399 117.675C235.343 119.109 240.407 118.292 244.493 115.826C242.361 111.557 238.521 108.156 233.576 106.721C228.631 105.287 223.568 106.105 219.482 108.57Z" fill="white"/>
<path d="M219.482 108.57L218.965 107.714L218.174 108.191L218.587 109.017L219.482 108.57ZM244.493 115.826L245.01 116.682L245.8 116.205L245.388 115.379L244.493 115.826ZM230.677 116.714C226.012 115.361 222.389 112.154 220.376 108.123L218.587 109.017C220.838 113.526 224.896 117.12 230.12 118.635L230.677 116.714ZM243.977 114.97C240.12 117.297 235.343 118.068 230.677 116.714L230.12 118.635C235.344 120.151 240.695 119.286 245.01 116.682L243.977 114.97ZM233.297 107.682C237.963 109.035 241.586 112.243 243.599 116.273L245.388 115.379C243.136 110.871 239.078 107.276 233.855 105.761L233.297 107.682ZM219.998 109.426C223.855 107.099 228.632 106.328 233.297 107.682L233.855 105.761C228.631 104.246 223.28 105.11 218.965 107.714L219.998 109.426Z" fill="white" mask="url(#path-36-inside-18_1008_1289)"/>
<mask id="path-38-inside-19_1008_1289" fill="white">
<path fill-rule="evenodd" clip-rule="evenodd" d="M249.319 84.8297C244.997 86.8548 241.502 90.6091 239.945 95.5165C238.388 100.424 239.079 105.506 241.442 109.652C245.763 107.627 249.258 103.873 250.815 98.9656C252.373 94.0584 251.682 88.9758 249.319 84.8297Z"/>
</mask>
<path fill-rule="evenodd" clip-rule="evenodd" d="M249.319 84.8297C244.997 86.8548 241.502 90.6091 239.945 95.5165C238.388 100.424 239.079 105.506 241.442 109.652C245.763 107.627 249.258 103.873 250.815 98.9656C252.373 94.0584 251.682 88.9758 249.319 84.8297Z" fill="white"/>
<path d="M249.319 84.8297L250.188 84.3346L249.73 83.5324L248.894 83.9242L249.319 84.8297ZM241.442 109.652L240.573 110.148L241.03 110.95L241.866 110.558L241.442 109.652ZM240.898 95.8189C242.368 91.1885 245.664 87.6468 249.743 85.7352L248.894 83.9242C244.331 86.0627 240.637 90.0297 238.992 95.214L240.898 95.8189ZM242.311 109.157C240.08 105.243 239.429 100.449 240.898 95.8189L238.992 95.214C237.347 100.398 238.078 105.769 240.573 110.148L242.311 109.157ZM249.862 98.6632C248.393 103.294 245.097 106.835 241.017 108.747L241.866 110.558C246.429 108.419 250.123 104.452 251.769 99.2681L249.862 98.6632ZM248.45 85.3249C250.68 89.2387 251.331 94.0329 249.862 98.6632L251.769 99.2681C253.414 94.0839 252.683 88.7129 250.188 84.3346L248.45 85.3249Z" fill="white" mask="url(#path-38-inside-19_1008_1289)"/>
<mask id="path-40-inside-20_1008_1289" fill="white">
<path fill-rule="evenodd" clip-rule="evenodd" d="M210.269 94.9505C212.867 98.9539 217.065 101.902 222.139 102.773C227.214 103.643 232.154 102.262 235.937 99.354C233.339 95.3506 229.142 92.4023 224.067 91.5319C218.993 90.6614 214.053 92.042 210.269 94.9505Z"/>
</mask>
<path fill-rule="evenodd" clip-rule="evenodd" d="M210.269 94.9505C212.867 98.9539 217.065 101.902 222.139 102.773C227.214 103.643 232.154 102.262 235.937 99.354C233.339 95.3506 229.142 92.4023 224.067 91.5319C218.993 90.6614 214.053 92.042 210.269 94.9505Z" fill="white"/>
<path d="M210.269 94.9505L209.66 94.1576L208.928 94.7203L209.43 95.4948L210.269 94.9505ZM235.937 99.354L236.547 100.147L237.279 99.5841L236.776 98.8097L235.937 99.354ZM222.309 101.787C217.52 100.966 213.56 98.1852 211.108 94.4061L209.43 95.4948C212.174 99.7225 216.609 102.839 221.97 103.758L222.309 101.787ZM235.328 98.5612C231.756 101.307 227.096 102.608 222.309 101.787L221.97 103.758C227.331 104.678 232.551 103.218 236.547 100.147L235.328 98.5612ZM223.898 92.5175C228.686 93.3388 232.646 96.1192 235.098 99.8983L236.776 98.8097C234.033 94.582 229.597 91.4659 224.236 90.5462L223.898 92.5175ZM210.879 95.7433C214.45 92.9977 219.11 91.6962 223.898 92.5175L224.236 90.5462C218.875 89.6267 213.655 91.0862 209.66 94.1576L210.879 95.7433Z" fill="white" mask="url(#path-40-inside-20_1008_1289)"/>
<mask id="path-42-inside-21_1008_1289" fill="white">
<path fill-rule="evenodd" clip-rule="evenodd" d="M239.667 69.9614C235.548 72.3711 232.409 76.4276 231.304 81.4562C230.2 86.4847 231.35 91.4833 234.08 95.3973C238.199 92.9876 241.338 88.9311 242.443 83.9025C243.547 78.874 242.397 73.8754 239.667 69.9614Z"/>
</mask>
<path fill-rule="evenodd" clip-rule="evenodd" d="M239.667 69.9614C235.548 72.3711 232.409 76.4276 231.304 81.4562C230.2 86.4847 231.35 91.4833 234.08 95.3973C238.199 92.9876 241.338 88.9311 242.443 83.9025C243.547 78.874 242.397 73.8754 239.667 69.9614Z" fill="white"/>
<path d="M239.667 69.9614L240.487 69.3893L239.959 68.6321L239.162 69.0983L239.667 69.9614ZM234.08 95.3973L233.26 95.9694L233.788 96.7267L234.585 96.2605L234.08 95.3973ZM232.281 81.6707C233.323 76.926 236.283 73.0992 240.172 70.8246L239.162 69.0983C234.812 71.6429 231.494 75.9293 230.327 81.2417L232.281 81.6707ZM234.9 94.8252C232.323 91.1305 231.239 86.4154 232.281 81.6707L230.327 81.2417C229.161 86.554 230.377 91.8361 233.26 95.9694L234.9 94.8252ZM241.466 83.688C240.424 88.4328 237.463 92.2595 233.575 94.5342L234.585 96.2605C238.935 93.7158 242.253 89.4294 243.419 84.117L241.466 83.688ZM238.847 70.5335C241.424 74.2282 242.508 78.9433 241.466 83.688L243.419 84.117C244.586 78.8048 243.37 73.5226 240.487 69.3893L238.847 70.5335Z" fill="white" mask="url(#path-42-inside-21_1008_1289)"/>
<mask id="path-44-inside-22_1008_1289" fill="white">
<path fill-rule="evenodd" clip-rule="evenodd" d="M222.953 57.3085C219.706 60.8059 217.873 65.5968 218.269 70.73C218.665 75.863 221.211 80.3158 224.956 83.2736C228.203 79.7762 230.036 74.9854 229.64 69.8522C229.244 64.7191 226.698 60.2664 222.953 57.3085Z"/>
</mask>
<path fill-rule="evenodd" clip-rule="evenodd" d="M222.953 57.3085C219.706 60.8059 217.873 65.5968 218.269 70.73C218.665 75.863 221.211 80.3158 224.956 83.2736C228.203 79.7762 230.036 74.9854 229.64 69.8522C229.244 64.7191 226.698 60.2664 222.953 57.3085Z" fill="white"/>
<path d="M222.953 57.3085L223.573 56.5238L222.848 55.9515L222.22 56.6282L222.953 57.3085ZM224.956 83.2736L224.336 84.0584L225.061 84.6307L225.689 83.954L224.956 83.2736ZM219.266 70.653C218.893 65.8095 220.621 61.2904 223.686 57.9889L222.22 56.6282C218.791 60.3215 216.854 65.384 217.272 70.8069L219.266 70.653ZM225.576 82.4889C222.041 79.6968 219.64 75.4964 219.266 70.653L217.272 70.8069C217.691 76.2297 220.382 80.9349 224.336 84.0584L225.576 82.4889ZM228.643 69.9291C229.016 74.7727 227.288 79.2918 224.223 82.5933L225.689 83.954C229.118 80.2607 231.055 75.1982 230.637 69.7753L228.643 69.9291ZM222.333 58.0933C225.868 60.8854 228.269 65.0858 228.643 69.9291L230.637 69.7753C230.218 64.3525 227.527 59.6473 223.573 56.5238L222.333 58.0933Z" fill="white" mask="url(#path-44-inside-22_1008_1289)"/>
<mask id="path-46-inside-23_1008_1289" fill="white">
<path fill-rule="evenodd" clip-rule="evenodd" d="M199.811 82.5227C203.432 79.4138 208.291 77.7683 213.405 78.3633C218.519 78.9584 222.87 81.6754 225.68 85.5324C222.059 88.6413 217.201 90.2868 212.086 89.6917C206.972 89.0967 202.622 86.3797 199.811 82.5227Z"/>
</mask>
<path fill-rule="evenodd" clip-rule="evenodd" d="M199.811 82.5227C203.432 79.4138 208.291 77.7683 213.405 78.3633C218.519 78.9584 222.87 81.6754 225.68 85.5324C222.059 88.6413 217.201 90.2868 212.086 89.6917C206.972 89.0967 202.622 86.3797 199.811 82.5227Z" fill="white"/>
<path d="M199.811 82.5227L199.16 81.764L198.46 82.3654L199.003 83.1116L199.811 82.5227ZM225.68 85.5324L226.331 86.2911L227.032 85.6897L226.488 84.9435L225.68 85.5324ZM200.463 83.2814C203.881 80.3467 208.464 78.7951 213.289 79.3566L213.52 77.37C208.118 76.7414 202.984 78.4809 199.16 81.764L200.463 83.2814ZM213.289 79.3566C218.115 79.9181 222.219 82.4804 224.872 86.1213L226.488 84.9435C223.52 80.8704 218.923 77.9987 213.52 77.37L213.289 79.3566ZM225.028 84.7737C221.61 87.7084 217.027 89.2599 212.202 88.6984L211.971 90.685C217.374 91.3137 222.508 89.5741 226.331 86.2911L225.028 84.7737ZM212.202 88.6984C207.377 88.1369 203.272 85.5747 200.62 81.9338L199.003 83.1116C201.971 87.1846 206.568 90.0564 211.971 90.685L212.202 88.6984Z" fill="white" mask="url(#path-46-inside-23_1008_1289)"/>
<mask id="path-48-inside-24_1008_1289" fill="white">
<path fill-rule="evenodd" clip-rule="evenodd" d="M208.837 49.6265C206.453 52.8274 205.361 56.9765 206.153 61.2094C206.945 65.4421 209.464 68.9152 212.845 71.0369C215.23 67.836 216.322 63.6869 215.529 59.4541C214.737 55.2213 212.218 51.7482 208.837 49.6265Z"/>
</mask>
<path fill-rule="evenodd" clip-rule="evenodd" d="M208.837 49.6265C206.453 52.8274 205.361 56.9765 206.153 61.2094C206.945 65.4421 209.464 68.9152 212.845 71.0369C215.23 67.836 216.322 63.6869 215.529 59.4541C214.737 55.2213 212.218 51.7482 208.837 49.6265Z" fill="white"/>
<path d="M208.837 49.6265L209.369 48.7795L208.587 48.2887L208.035 49.029L208.837 49.6265ZM212.845 71.0369L212.313 71.884L213.095 72.3747L213.647 71.6344L212.845 71.0369ZM207.136 61.0254C206.397 57.0782 207.414 53.2105 209.639 50.2239L208.035 49.029C205.491 52.4444 204.324 56.8749 205.17 61.3933L207.136 61.0254ZM213.376 70.1899C210.222 68.2103 207.875 64.9725 207.136 61.0254L205.17 61.3933C206.016 65.9117 208.706 69.6201 212.313 71.884L213.376 70.1899ZM214.546 59.6381C215.285 63.5853 214.268 67.453 212.043 70.4395L213.647 71.6344C216.191 68.219 217.358 63.7885 216.512 59.2701L214.546 59.6381ZM208.306 50.4735C211.46 52.4531 213.808 55.6909 214.546 59.6381L216.512 59.2701C215.667 54.7517 212.976 51.0433 209.369 48.7795L208.306 50.4735Z" fill="white" mask="url(#path-48-inside-24_1008_1289)"/>
<mask id="path-50-inside-25_1008_1289" fill="white">
<path fill-rule="evenodd" clip-rule="evenodd" d="M190.61 71.6289C193.19 74.6748 196.986 76.6754 201.288 76.8592C205.59 77.043 209.542 75.3734 212.373 72.559C209.793 69.5132 205.997 67.5125 201.695 67.3287C197.393 67.145 193.441 68.8145 190.61 71.6289Z"/>
</mask>
<path fill-rule="evenodd" clip-rule="evenodd" d="M190.61 71.6289C193.19 74.6748 196.986 76.6754 201.288 76.8592C205.59 77.043 209.542 75.3734 212.373 72.559C209.793 69.5132 205.997 67.5125 201.695 67.3287C197.393 67.145 193.441 68.8145 190.61 71.6289Z" fill="white"/>
<path d="M190.61 71.6289L189.905 70.9199L189.251 71.5708L189.847 72.2753L190.61 71.6289ZM212.373 72.559L213.078 73.2681L213.732 72.6171L213.136 71.9126L212.373 72.559ZM201.331 75.8601C197.319 75.6887 193.781 73.8244 191.373 70.9826L189.847 72.2753C192.6 75.5251 196.653 77.6621 201.246 77.8583L201.331 75.8601ZM211.667 71.8499C209.027 74.4758 205.343 76.0315 201.331 75.8601L201.246 77.8583C205.838 78.0544 210.058 76.271 213.078 73.2681L211.667 71.8499ZM201.652 68.3278C205.664 68.4992 209.202 70.3635 211.61 73.2053L213.136 71.9126C210.383 68.6628 206.33 66.5258 201.738 66.3296L201.652 68.3278ZM191.316 72.338C193.956 69.7121 197.64 68.1564 201.652 68.3278L201.738 66.3296C197.145 66.1335 192.925 67.9169 189.905 70.9199L191.316 72.338Z" fill="white" mask="url(#path-50-inside-25_1008_1289)"/>
<mask id="path-52-inside-26_1008_1289" fill="white">
<path fill-rule="evenodd" clip-rule="evenodd" d="M179.967 48.949C180.562 52.8959 182.741 56.592 186.305 59.0084C189.87 61.4248 194.11 62.0801 197.996 61.1719C197.401 57.225 195.222 53.5289 191.658 51.1125C188.094 48.6961 183.854 48.0408 179.967 48.949Z"/>
</mask>
<path fill-rule="evenodd" clip-rule="evenodd" d="M179.967 48.949C180.562 52.8959 182.741 56.592 186.305 59.0084C189.87 61.4248 194.11 62.0801 197.996 61.1719C197.401 57.225 195.222 53.5289 191.658 51.1125C188.094 48.6961 183.854 48.0408 179.967 48.949Z" fill="white"/>
<path d="M179.967 48.949L179.739 47.9753L178.84 48.1853L178.978 49.0982L179.967 48.949ZM197.996 61.1719L198.224 62.1457L199.123 61.9356L198.985 61.0227L197.996 61.1719ZM186.866 58.1807C183.543 55.9273 181.511 52.4824 180.956 48.7999L178.978 49.0982C179.613 53.3095 181.939 57.2566 185.744 59.8361L186.866 58.1807ZM197.769 60.1981C194.142 61.0455 190.19 60.434 186.866 58.1807L185.744 59.8361C189.549 62.4156 194.077 63.1147 198.224 62.1457L197.769 60.1981ZM191.097 51.9402C194.421 54.1936 196.452 57.6385 197.008 61.321L198.985 61.0227C198.35 56.8115 196.024 52.8643 192.219 50.2848L191.097 51.9402ZM180.194 49.9228C183.821 49.0754 187.773 49.6869 191.097 51.9402L192.219 50.2848C188.414 47.7053 183.887 47.0062 179.739 47.9753L180.194 49.9228Z" fill="white" mask="url(#path-52-inside-26_1008_1289)"/>
<path d="M111.295 268C107.235 261.441 92.2431 252.106 73.1913 243.639C53.5149 234.894 35.8165 206.472 28.8413 191.793C24.4687 181.59 18.9718 153.189 31.9645 121.207C35.8165 109.756 49.3298 82.854 72.5667 66.863L82.8734 59.9918" stroke="white" stroke-width="3" stroke-linecap="round"/>
<mask id="path-55-inside-27_1008_1289" fill="white">
<path fill-rule="evenodd" clip-rule="evenodd" d="M51.3991 252.604C54.7919 247.867 60.0768 244.507 66.3146 243.73C72.5522 242.953 78.4998 244.914 82.9509 248.673C79.5581 253.41 74.2732 256.77 68.0354 257.547C61.7978 258.324 55.8502 256.363 51.3991 252.604Z"/>
</mask>
<path fill-rule="evenodd" clip-rule="evenodd" d="M51.3991 252.604C54.7919 247.867 60.0768 244.507 66.3146 243.73C72.5522 242.953 78.4998 244.914 82.9509 248.673C79.5581 253.41 74.2732 256.77 68.0354 257.547C61.7978 258.324 55.8502 256.363 51.3991 252.604Z" fill="white"/>
<path d="M51.3991 252.604L50.7538 253.368L50.0485 252.772L50.5861 252.021L51.3991 252.604ZM82.9509 248.673L83.5962 247.909L84.3015 248.505L83.7639 249.255L82.9509 248.673ZM66.4382 244.722C60.4888 245.463 55.4492 248.667 52.212 253.186L50.5861 252.021C54.1346 247.067 59.6649 243.55 66.191 242.737L66.4382 244.722ZM82.3057 249.437C78.0588 245.85 72.3875 243.981 66.4382 244.722L66.191 242.737C72.7169 241.924 78.9408 243.977 83.5962 247.909L82.3057 249.437ZM67.9118 256.555C73.8612 255.814 78.9008 252.61 82.138 248.091L83.7639 249.255C80.2154 254.21 74.6851 257.727 68.159 258.539L67.9118 256.555ZM52.0443 251.84C56.2912 255.427 61.9626 257.296 67.9118 256.555L68.159 258.539C61.6331 259.352 55.4092 257.3 50.7538 253.368L52.0443 251.84Z" fill="white" mask="url(#path-55-inside-27_1008_1289)"/>
<mask id="path-57-inside-28_1008_1289" fill="white">
<path fill-rule="evenodd" clip-rule="evenodd" d="M79.2834 217.485C83.9433 220.982 87.1845 226.341 87.8218 232.595C88.4592 238.848 86.3658 244.751 82.5075 249.117C77.8477 245.619 74.6065 240.26 73.9691 234.006C73.3318 227.753 75.4252 221.851 79.2834 217.485Z"/>
</mask>
<path fill-rule="evenodd" clip-rule="evenodd" d="M79.2834 217.485C83.9433 220.982 87.1845 226.341 87.8218 232.595C88.4592 238.848 86.3658 244.751 82.5075 249.117C77.8477 245.619 74.6065 240.26 73.9691 234.006C73.3318 227.753 75.4252 221.851 79.2834 217.485Z" fill="white"/>
<path d="M79.2834 217.485L78.5341 216.822L79.1454 216.131L79.8838 216.685L79.2834 217.485ZM82.5075 249.117L83.2569 249.779L82.6455 250.471L81.9072 249.916L82.5075 249.117ZM86.827 232.696C86.2191 226.732 83.1291 221.622 78.6831 218.284L79.8838 216.685C84.7574 220.343 88.1499 225.951 88.8167 232.493L86.827 232.696ZM81.7582 248.455C85.4394 244.289 87.4349 238.661 86.827 232.696L88.8167 232.493C89.4835 239.036 87.2921 245.213 83.2569 249.779L81.7582 248.455ZM74.964 233.905C75.5718 239.87 78.6619 244.98 83.1079 248.317L81.9072 249.916C77.0335 246.258 73.6411 240.651 72.9743 234.108L74.964 233.905ZM80.0328 218.147C76.3516 222.312 74.3561 227.941 74.964 233.905L72.9743 234.108C72.3075 227.565 74.4988 221.389 78.5341 216.822L80.0328 218.147Z" fill="white" mask="url(#path-57-inside-28_1008_1289)"/>
<mask id="path-59-inside-29_1008_1289" fill="white">
<path fill-rule="evenodd" clip-rule="evenodd" d="M35.0403 237.935C38.5373 241.728 43.547 244.105 49.1128 244.109C54.6786 244.113 59.6915 241.742 63.1936 237.954C59.6966 234.161 54.6869 231.784 49.1211 231.78C43.5553 231.776 38.5424 234.147 35.0403 237.935Z"/>
</mask>
<path fill-rule="evenodd" clip-rule="evenodd" d="M35.0403 237.935C38.5373 241.728 43.547 244.105 49.1128 244.109C54.6786 244.113 59.6915 241.742 63.1936 237.954C59.6966 234.161 54.6869 231.784 49.1211 231.78C43.5553 231.776 38.5424 234.147 35.0403 237.935Z" fill="white"/>
<path d="M35.0403 237.935L34.3051 238.613L33.6792 237.934L34.306 237.256L35.0403 237.935ZM63.1936 237.954L63.9288 237.276L64.5546 237.955L63.9279 238.633L63.1936 237.954ZM35.7755 237.257C39.0912 240.853 43.8382 243.105 49.1135 243.109L49.1121 245.109C43.2558 245.105 37.9833 242.602 34.3051 238.613L35.7755 237.257ZM49.1135 243.109C54.3887 243.112 59.1387 240.867 62.4593 237.275L63.9279 238.633C60.2443 242.617 54.9685 245.113 49.1121 245.109L49.1135 243.109ZM62.4584 238.632C59.1426 235.035 54.3956 232.783 49.1204 232.78L49.1217 230.78C54.9781 230.784 60.2506 233.287 63.9288 237.276L62.4584 238.632ZM49.1204 232.78C43.8452 232.776 39.0952 235.022 35.7746 238.614L34.306 237.256C37.9896 233.272 43.2654 230.776 49.1217 230.78L49.1204 232.78Z" fill="white" mask="url(#path-59-inside-29_1008_1289)"/>
<mask id="path-61-inside-30_1008_1289" fill="white">
<path fill-rule="evenodd" clip-rule="evenodd" d="M63.9072 209.444C67.6051 213.042 69.8472 218.113 69.7015 223.678C69.5558 229.241 67.0515 234.189 63.1705 237.588C59.4727 233.991 57.2306 228.919 57.3763 223.355C57.522 217.791 60.0263 212.843 63.9072 209.444Z"/>
</mask>
<path fill-rule="evenodd" clip-rule="evenodd" d="M63.9072 209.444C67.6051 213.042 69.8472 218.113 69.7015 223.678C69.5558 229.241 67.0515 234.189 63.1705 237.588C59.4727 233.991 57.2306 228.919 57.3763 223.355C57.522 217.791 60.0263 212.843 63.9072 209.444Z" fill="white"/>
<path d="M63.9072 209.444L63.2483 208.692L63.9428 208.083L64.6045 208.727L63.9072 209.444ZM63.1705 237.588L63.8294 238.34L63.1349 238.949L62.4732 238.305L63.1705 237.588ZM68.7018 223.651C68.8399 218.378 66.7161 213.572 63.2099 210.161L64.6045 208.727C68.494 212.511 70.8544 217.849 70.7011 223.704L68.7018 223.651ZM62.5117 236.836C66.1915 233.613 68.5637 228.925 68.7018 223.651L70.7011 223.704C70.5478 229.558 67.9115 234.765 63.8294 238.34L62.5117 236.836ZM58.3759 223.381C58.2378 228.654 60.3616 233.46 63.8679 236.871L62.4732 238.305C58.5837 234.521 56.2233 229.183 56.3766 223.328L58.3759 223.381ZM64.5661 210.196C60.8863 213.419 58.514 218.107 58.3759 223.381L56.3766 223.328C56.5299 217.474 59.1663 212.267 63.2483 208.692L64.5661 210.196Z" fill="white" mask="url(#path-61-inside-30_1008_1289)"/>
<mask id="path-63-inside-31_1008_1289" fill="white">
<path fill-rule="evenodd" clip-rule="evenodd" d="M21.4475 221.662C24.5462 225.787 29.2922 228.655 34.8297 229.217C40.3668 229.779 45.5921 227.924 49.4566 224.507C46.3579 220.382 41.6119 217.514 36.0744 216.951C30.5373 216.389 25.312 218.245 21.4475 221.662Z"/>
</mask>
<path fill-rule="evenodd" clip-rule="evenodd" d="M21.4475 221.662C24.5462 225.787 29.2922 228.655 34.8297 229.217C40.3668 229.779 45.5921 227.924 49.4566 224.507C46.3579 220.382 41.6119 217.514 36.0744 216.951C30.5373 216.389 25.312 218.245 21.4475 221.662Z" fill="white"/>
<path d="M21.4475 221.662L20.648 222.263L20.0934 221.524L20.785 220.913L21.4475 221.662ZM49.4566 224.507L50.2562 223.906L50.8107 224.644L50.1191 225.256L49.4566 224.507ZM22.247 221.061C25.1852 224.972 29.6823 227.689 34.9307 228.222L34.7287 230.212C28.9021 229.621 23.9073 226.601 20.648 222.263L22.247 221.061ZM34.9307 228.222C40.1788 228.755 45.13 226.998 48.7942 223.758L50.1191 225.256C46.0543 228.85 40.5549 230.804 34.7287 230.212L34.9307 228.222ZM48.6571 225.107C45.719 221.196 41.2218 218.479 35.9734 217.946L36.1754 215.956C42.002 216.548 46.9968 219.567 50.2562 223.906L48.6571 225.107ZM35.9734 217.946C30.7254 217.413 25.7742 219.171 22.1099 222.411L20.785 220.913C24.8498 217.318 30.3492 215.365 36.1754 215.956L35.9734 217.946Z" fill="white" mask="url(#path-63-inside-31_1008_1289)"/>
<mask id="path-65-inside-32_1008_1289" fill="white">
<path fill-rule="evenodd" clip-rule="evenodd" d="M54.6781 195.617C57.6275 199.85 58.8683 205.255 57.6714 210.69C56.4745 216.126 53.0784 220.509 48.624 223.112C45.6746 218.879 44.4338 213.474 45.6307 208.039C46.8276 202.603 50.2236 198.22 54.6781 195.617Z"/>
</mask>
<path fill-rule="evenodd" clip-rule="evenodd" d="M54.6781 195.617C57.6275 199.85 58.8683 205.255 57.6714 210.69C56.4745 216.126 53.0784 220.509 48.624 223.112C45.6746 218.879 44.4338 213.474 45.6307 208.039C46.8276 202.603 50.2236 198.22 54.6781 195.617Z" fill="white"/>
<path d="M54.6781 195.617L54.1736 194.754L54.9707 194.288L55.4985 195.045L54.6781 195.617ZM48.624 223.112L49.1285 223.975L48.3313 224.441L47.8035 223.684L48.624 223.112ZM56.6948 210.475C57.8292 205.323 56.6542 200.202 53.8576 196.189L55.4985 195.045C58.6008 199.497 59.9074 205.186 58.648 210.905L56.6948 210.475ZM48.1195 222.248C52.3431 219.781 55.5604 215.627 56.6948 210.475L58.648 210.905C57.3886 216.625 53.8137 221.238 49.1285 223.975L48.1195 222.248ZM46.6073 208.254C45.4728 213.406 46.6479 218.527 49.4445 222.54L47.8035 223.684C44.7012 219.231 43.3947 213.543 44.6541 207.824L46.6073 208.254ZM55.1825 196.48C50.9589 198.948 47.7417 203.102 46.6073 208.254L44.6541 207.824C45.9134 202.104 49.4883 197.491 54.1736 194.754L55.1825 196.48Z" fill="white" mask="url(#path-65-inside-32_1008_1289)"/>
<mask id="path-67-inside-33_1008_1289" fill="white">
<path fill-rule="evenodd" clip-rule="evenodd" d="M11.3342 200.832C15.7587 198.179 21.2357 197.31 26.5769 198.875C31.9179 200.441 36.0591 204.128 38.3512 208.75C33.9267 211.404 28.4498 212.272 23.1085 210.707C17.7676 209.141 13.6263 205.454 11.3342 200.832Z"/>
</mask>
<path fill-rule="evenodd" clip-rule="evenodd" d="M11.3342 200.832C15.7587 198.179 21.2357 197.31 26.5769 198.875C31.9179 200.441 36.0591 204.128 38.3512 208.75C33.9267 211.404 28.4498 212.272 23.1085 210.707C17.7676 209.141 13.6263 205.454 11.3342 200.832Z" fill="white"/>
<path d="M11.3342 200.832L10.4383 201.276L10.0281 200.449L10.8199 199.974L11.3342 200.832ZM38.3512 208.75L39.2471 208.306L39.6573 209.133L38.8655 209.608L38.3512 208.75ZM26.2956 199.835C21.2332 198.351 16.0438 199.174 11.8485 201.69L10.8199 199.974C15.4737 197.183 21.2381 196.269 26.8582 197.916L26.2956 199.835ZM37.4553 209.194C35.282 204.812 31.3578 201.319 26.2956 199.835L26.8582 197.916C32.478 199.563 36.8362 203.445 39.2471 208.306L37.4553 209.194ZM23.3898 209.747C28.4522 211.231 33.6416 210.408 37.8369 207.893L38.8655 209.608C34.2117 212.399 28.4473 213.314 22.8272 211.666L23.3898 209.747ZM12.2301 200.388C14.4034 204.77 18.3277 208.263 23.3898 209.747L22.8272 211.666C17.2074 210.019 12.8493 206.137 10.4383 201.276L12.2301 200.388Z" fill="white" mask="url(#path-67-inside-33_1008_1289)"/>
<mask id="path-69-inside-34_1008_1289" fill="white">
<path fill-rule="evenodd" clip-rule="evenodd" d="M35.4296 206.294C40.4409 205.067 44.9444 201.831 47.6388 196.961C50.3331 192.09 50.6815 186.556 49.0585 181.659C44.0472 182.886 39.5437 186.122 36.8493 190.993C34.1551 195.863 33.8066 201.397 35.4296 206.294Z"/>
</mask>
<path fill-rule="evenodd" clip-rule="evenodd" d="M35.4296 206.294C40.4409 205.067 44.9444 201.831 47.6388 196.961C50.3331 192.09 50.6815 186.556 49.0585 181.659C44.0472 182.886 39.5437 186.122 36.8493 190.993C34.1551 195.863 33.8066 201.397 35.4296 206.294Z" fill="white"/>
<path d="M35.4296 206.294L35.6674 207.266L34.7708 207.485L34.4804 206.609L35.4296 206.294ZM49.0585 181.659L48.8207 180.687L49.7174 180.468L50.0078 181.344L49.0585 181.659ZM35.1917 205.323C39.9433 204.16 44.21 201.093 46.7637 196.477L48.5138 197.445C45.6787 202.57 40.9384 205.975 35.6674 207.266L35.1917 205.323ZM46.7637 196.477C49.3174 191.861 49.6482 186.617 48.1093 181.973L50.0078 181.344C51.7149 186.495 51.3488 192.32 48.5138 197.445L46.7637 196.477ZM49.2964 182.63C44.5448 183.794 40.2781 186.86 37.7244 191.477L35.9743 190.508C38.8094 185.384 43.5497 181.978 48.8207 180.687L49.2964 182.63ZM37.7244 191.477C35.1708 196.093 34.8399 201.336 36.3788 205.98L34.4804 206.609C32.7732 201.458 33.1394 195.633 35.9743 190.508L37.7244 191.477Z" fill="white" mask="url(#path-69-inside-34_1008_1289)"/>
<mask id="path-71-inside-35_1008_1289" fill="white">
<path fill-rule="evenodd" clip-rule="evenodd" d="M2.66289 181.112C7.45671 179.205 13.002 179.229 18.0218 181.633C23.0413 184.038 26.5353 188.343 28.0539 193.274C23.2601 195.181 17.7148 195.157 12.695 192.752C7.67547 190.348 4.18151 186.042 2.66289 181.112Z"/>
</mask>
<path fill-rule="evenodd" clip-rule="evenodd" d="M2.66289 181.112C7.45671 179.205 13.002 179.229 18.0218 181.633C23.0413 184.038 26.5353 188.343 28.0539 193.274C23.2601 195.181 17.7148 195.157 12.695 192.752C7.67547 190.348 4.18151 186.042 2.66289 181.112Z" fill="white"/>
<path d="M2.66289 181.112L1.7072 181.406L1.43543 180.524L2.29327 180.183L2.66289 181.112ZM28.0539 193.274L29.0096 192.979L29.2814 193.862L28.4235 194.203L28.0539 193.274ZM17.5898 182.535C12.8321 180.256 7.5779 180.233 3.03251 182.041L2.29327 180.183C7.33552 178.177 13.172 178.201 18.4538 180.731L17.5898 182.535ZM27.0982 193.568C25.6583 188.893 22.3473 184.814 17.5898 182.535L18.4538 180.731C23.7354 183.261 27.4123 187.794 29.0096 192.979L27.0982 193.568ZM13.127 191.85C17.8847 194.129 23.1389 194.153 27.6843 192.345L28.4235 194.203C23.3813 196.209 17.5448 196.184 12.263 193.654L13.127 191.85ZM3.61858 180.817C5.0585 185.492 8.36953 189.572 13.127 191.85L12.263 193.654C6.98141 191.124 3.30452 186.592 1.7072 181.406L3.61858 180.817Z" fill="white" mask="url(#path-71-inside-35_1008_1289)"/>
<mask id="path-73-inside-36_1008_1289" fill="white">
<path fill-rule="evenodd" clip-rule="evenodd" d="M47.0539 168.123C47.1635 173.281 45.2014 178.467 41.193 182.329C37.1847 186.19 31.9289 187.957 26.7789 187.656C26.6693 182.498 28.6314 177.311 32.6398 173.45C36.648 169.588 41.9039 167.821 47.0539 168.123Z"/>
</mask>
<path fill-rule="evenodd" clip-rule="evenodd" d="M47.0539 168.123C47.1635 173.281 45.2014 178.467 41.193 182.329C37.1847 186.19 31.9289 187.957 26.7789 187.656C26.6693 182.498 28.6314 177.311 32.6398 173.45C36.648 169.588 41.9039 167.821 47.0539 168.123Z" fill="white"/>
<path d="M47.0539 168.123L47.1124 167.125L48.0341 167.179L48.0537 168.102L47.0539 168.123ZM26.7789 187.656L26.7204 188.654L25.7987 188.6L25.7791 187.677L26.7789 187.656ZM40.4992 181.609C44.2984 177.949 46.158 173.035 46.0541 168.144L48.0537 168.102C48.1689 173.527 46.1045 178.986 41.8868 183.049L40.4992 181.609ZM26.8374 186.657C31.7205 186.944 36.7002 185.269 40.4992 181.609L41.8868 183.049C37.6693 187.112 32.1373 188.971 26.7204 188.654L26.8374 186.657ZM33.3336 174.17C29.5344 177.83 27.6748 182.744 27.7787 187.634L25.7791 187.677C25.6639 182.252 27.7283 176.793 31.946 172.73L33.3336 174.17ZM46.9954 169.121C42.1123 168.835 37.1326 170.51 33.3336 174.17L31.946 172.73C36.1635 168.667 41.6955 166.807 47.1124 167.125L46.9954 169.121Z" fill="white" mask="url(#path-73-inside-36_1008_1289)"/>
<mask id="path-75-inside-37_1008_1289" fill="white">
<path fill-rule="evenodd" clip-rule="evenodd" d="M5.01429 159.995C9.73689 159.307 14.7219 160.517 18.7235 163.757C22.7249 166.997 24.9459 171.62 25.2556 176.382C20.533 177.071 15.548 175.861 11.5463 172.621C7.54493 169.381 5.32391 164.757 5.01429 159.995Z"/>
</mask>
<path fill-rule="evenodd" clip-rule="evenodd" d="M5.01429 159.995C9.73689 159.307 14.7219 160.517 18.7235 163.757C22.7249 166.997 24.9459 171.62 25.2556 176.382C20.533 177.071 15.548 175.861 11.5463 172.621C7.54493 169.381 5.32391 164.757 5.01429 159.995Z" fill="white"/>
<path d="M5.01429 159.995L4.0164 160.06L3.9565 159.139L4.87005 159.006L5.01429 159.995ZM25.2556 176.382L26.2535 176.317L26.3134 177.239L25.3998 177.372L25.2556 176.382ZM18.0943 164.534C14.3185 161.477 9.61656 160.335 5.15854 160.985L4.87005 159.006C9.85722 158.279 15.1253 159.557 19.3528 162.98L18.0943 164.534ZM24.2577 176.447C23.9654 171.952 21.8699 167.591 18.0943 164.534L19.3528 162.98C23.58 166.402 25.9265 171.289 26.2535 176.317L24.2577 176.447ZM12.1756 171.843C15.9514 174.9 20.6533 176.043 25.1113 175.393L25.3998 177.372C20.4126 178.099 15.1446 176.821 10.9171 173.398L12.1756 171.843ZM6.01219 159.93C6.30446 164.426 8.40001 168.787 12.1756 171.843L10.9171 173.398C6.68985 169.975 4.34337 165.089 4.0164 160.06L6.01219 159.93Z" fill="white" mask="url(#path-75-inside-37_1008_1289)"/>
<mask id="path-77-inside-38_1008_1289" fill="white">
<path fill-rule="evenodd" clip-rule="evenodd" d="M46.6187 154.887C45.5558 159.54 42.6276 163.752 38.1617 166.314C33.6962 168.876 28.5829 169.278 24.0303 167.848C25.0932 163.195 28.0213 158.983 32.4873 156.421C36.9528 153.859 42.0661 153.457 46.6187 154.887Z"/>
</mask>
<path fill-rule="evenodd" clip-rule="evenodd" d="M46.6187 154.887C45.5558 159.54 42.6276 163.752 38.1617 166.314C33.6962 168.876 28.5829 169.278 24.0303 167.848C25.0932 163.195 28.0213 158.983 32.4873 156.421C36.9528 153.859 42.0661 153.457 46.6187 154.887Z" fill="white"/>
<path d="M46.6187 154.887L46.9184 153.933L47.7992 154.21L47.5936 155.11L46.6187 154.887ZM24.0303 167.848L23.7306 168.802L22.8498 168.525L23.0554 167.625L24.0303 167.848ZM37.6641 165.446C41.878 163.029 44.6405 159.056 45.6438 154.664L47.5936 155.11C46.4711 160.023 43.3773 164.474 38.6593 167.181L37.6641 165.446ZM24.33 166.894C28.6275 168.244 33.4506 167.864 37.6641 165.446L38.6593 167.181C33.9418 169.888 28.5383 170.312 23.7306 168.802L24.33 166.894ZM32.9849 157.289C28.771 159.706 26.0085 163.679 25.0052 168.07L23.0554 167.625C24.1779 162.712 27.2717 158.261 31.9897 155.554L32.9849 157.289ZM46.319 155.841C42.0215 154.491 37.1984 154.871 32.9849 157.289L31.9897 155.554C36.7072 152.847 42.1107 152.423 46.9184 153.933L46.319 155.841Z" fill="white" mask="url(#path-77-inside-38_1008_1289)"/>
<mask id="path-79-inside-39_1008_1289" fill="white">
<path fill-rule="evenodd" clip-rule="evenodd" d="M47.2882 139.297C46.1822 143.94 43.2153 148.124 38.7259 150.645C34.2366 153.165 29.1194 153.52 24.58 152.048C25.686 147.405 28.6529 143.221 33.1423 140.7C37.6316 138.179 42.7488 137.825 47.2882 139.297Z"/>
</mask>
<path fill-rule="evenodd" clip-rule="evenodd" d="M47.2882 139.297C46.1822 143.94 43.2153 148.124 38.7259 150.645C34.2366 153.165 29.1194 153.52 24.58 152.048C25.686 147.405 28.6529 143.221 33.1423 140.7C37.6316 138.179 42.7488 137.825 47.2882 139.297Z" fill="white"/>
<path d="M47.2882 139.297L47.5968 138.346L48.4749 138.631L48.261 139.529L47.2882 139.297ZM24.58 152.048L24.2714 152.999L23.3933 152.714L23.6072 151.816L24.58 152.048ZM38.2363 149.773C42.4723 147.394 45.2714 143.448 46.3154 139.065L48.261 139.529C47.0931 144.431 43.9582 148.854 39.2155 151.517L38.2363 149.773ZM24.8885 151.096C29.1736 152.486 34.0004 152.151 38.2363 149.773L39.2155 151.517C34.4728 154.18 29.0651 154.554 24.2714 152.999L24.8885 151.096ZM33.6319 141.572C29.3959 143.95 26.5968 147.897 25.5528 152.279L23.6072 151.816C24.7751 146.913 27.91 142.491 32.6527 139.828L33.6319 141.572ZM46.9796 140.248C42.6946 138.858 37.8678 139.194 33.6319 141.572L32.6527 139.828C37.3954 137.165 42.8031 136.791 47.5968 138.346L46.9796 140.248Z" fill="white" mask="url(#path-79-inside-39_1008_1289)"/>
<mask id="path-81-inside-40_1008_1289" fill="white">
<path fill-rule="evenodd" clip-rule="evenodd" d="M6.85617 139.765C11.6172 140.098 16.2301 142.342 19.45 146.36C22.6695 150.378 23.8548 155.369 23.1429 160.087C18.3819 159.754 13.7689 157.51 10.5491 153.492C7.32954 149.474 6.14431 144.484 6.85617 139.765Z"/>
</mask>
<path fill-rule="evenodd" clip-rule="evenodd" d="M6.85617 139.765C11.6172 140.098 16.2301 142.342 19.45 146.36C22.6695 150.378 23.8548 155.369 23.1429 160.087C18.3819 159.754 13.7689 157.51 10.5491 153.492C7.32954 149.474 6.14431 144.484 6.85617 139.765Z" fill="white"/>
<path d="M6.85617 139.765L5.86735 139.616L6.00506 138.703L6.92598 138.767L6.85617 139.765ZM23.1429 160.087L24.1317 160.237L23.994 161.149L23.0731 161.085L23.1429 160.087ZM18.6696 146.986C15.6315 143.194 11.2806 141.077 6.78635 140.762L6.92598 138.767C11.9537 139.119 16.8288 141.49 20.2303 145.735L18.6696 146.986ZM22.1541 159.938C22.8261 155.484 21.7075 150.777 18.6696 146.986L20.2303 145.735C23.6316 149.979 24.8835 155.253 24.1317 160.237L22.1541 159.938ZM11.3295 152.867C14.3676 156.658 18.7185 158.775 23.2127 159.09L23.0731 161.085C18.0454 160.733 13.1703 158.362 9.76875 154.117L11.3295 152.867ZM7.84498 139.914C7.17301 144.369 8.29159 149.076 11.3295 152.867L9.76875 154.117C6.36748 149.873 5.11562 144.599 5.86735 139.616L7.84498 139.914Z" fill="white" mask="url(#path-81-inside-40_1008_1289)"/>
<mask id="path-83-inside-41_1008_1289" fill="white">
<path fill-rule="evenodd" clip-rule="evenodd" d="M9.97921 120.401C14.7402 120.734 19.3532 122.978 22.573 126.996C25.7926 131.014 26.9778 136.005 26.266 140.723C21.505 140.39 16.892 138.146 13.6721 134.128C10.4526 130.11 9.26736 125.12 9.97921 120.401Z"/>
</mask>
<path fill-rule="evenodd" clip-rule="evenodd" d="M9.97921 120.401C14.7402 120.734 19.3532 122.978 22.573 126.996C25.7926 131.014 26.9778 136.005 26.266 140.723C21.505 140.39 16.892 138.146 13.6721 134.128C10.4526 130.11 9.26736 125.12 9.97921 120.401Z" fill="white"/>
<path d="M9.97921 120.401L8.9904 120.252L9.12811 119.339L10.049 119.403L9.97921 120.401ZM26.266 140.723L27.2548 140.873L27.1171 141.785L26.1961 141.721L26.266 140.723ZM21.7927 127.622C18.7545 123.83 14.4037 121.713 9.9094 121.398L10.049 119.403C15.0768 119.755 19.9518 122.126 23.3534 126.371L21.7927 127.622ZM25.2771 140.574C25.9491 136.12 24.8305 131.412 21.7927 127.622L23.3534 126.371C26.7546 130.615 28.0065 135.889 27.2548 140.873L25.2771 140.574ZM14.4525 133.503C17.4906 137.294 21.8415 139.411 26.3358 139.726L26.1961 141.721C21.1684 141.369 16.2934 138.998 12.8918 134.753L14.4525 133.503ZM10.968 120.55C10.2961 125.004 11.4146 129.712 14.4525 133.503L12.8918 134.753C9.49052 130.509 8.23867 125.235 8.9904 120.252L10.968 120.55Z" fill="white" mask="url(#path-83-inside-41_1008_1289)"/>
<mask id="path-85-inside-42_1008_1289" fill="white">
<path fill-rule="evenodd" clip-rule="evenodd" d="M52.9747 126.715C50.7556 130.94 46.8462 134.261 41.873 135.594C36.9002 136.927 31.8544 136.006 27.82 133.457C30.0391 129.232 33.9484 125.911 38.9217 124.578C43.8945 123.245 48.9403 124.166 52.9747 126.715Z"/>
</mask>
<path fill-rule="evenodd" clip-rule="evenodd" d="M52.9747 126.715C50.7556 130.94 46.8462 134.261 41.873 135.594C36.9002 136.927 31.8544 136.006 27.82 133.457C30.0391 129.232 33.9484 125.911 38.9217 124.578C43.8945 123.245 48.9403 124.166 52.9747 126.715Z" fill="white"/>
<path d="M52.9747 126.715L53.5088 125.87L54.2893 126.363L53.86 127.18L52.9747 126.715ZM27.82 133.457L27.2859 134.303L26.5053 133.81L26.9347 132.992L27.82 133.457ZM41.6141 134.628C46.3067 133.371 49.9946 130.238 52.0894 126.25L53.86 127.18C51.5165 131.642 47.3858 135.152 42.1319 136.56L41.6141 134.628ZM28.354 132.612C32.1624 135.018 36.922 135.886 41.6141 134.628L42.1319 136.56C36.8784 137.968 31.5463 136.994 27.2859 134.303L28.354 132.612ZM39.1806 125.544C34.488 126.802 30.8001 129.934 28.7053 133.922L26.9347 132.992C29.2781 128.531 33.4089 125.02 38.6628 123.612L39.1806 125.544ZM52.4407 127.56C48.6322 125.155 43.8727 124.287 39.1806 125.544L38.6628 123.612C43.9163 122.204 49.2483 123.178 53.5088 125.87L52.4407 127.56Z" fill="white" mask="url(#path-85-inside-42_1008_1289)"/>
<mask id="path-87-inside-43_1008_1289" fill="white">
<path fill-rule="evenodd" clip-rule="evenodd" d="M18.3195 101.9C22.9055 103.222 26.9467 106.382 29.2544 110.985C31.5618 115.588 31.6761 120.716 29.9923 125.182C25.4063 123.859 21.365 120.699 19.0574 116.096C16.75 111.494 16.6356 106.365 18.3195 101.9Z"/>
</mask>
<path fill-rule="evenodd" clip-rule="evenodd" d="M18.3195 101.9C22.9055 103.222 26.9467 106.382 29.2544 110.985C31.5618 115.588 31.6761 120.716 29.9923 125.182C25.4063 123.859 21.365 120.699 19.0574 116.096C16.75 111.494 16.6356 106.365 18.3195 101.9Z" fill="white"/>
<path d="M18.3195 101.9L17.3838 101.547L17.7095 100.683L18.5965 100.939L18.3195 101.9ZM29.9923 125.182L30.928 125.535L30.6023 126.398L29.7152 126.143L29.9923 125.182ZM28.3604 111.434C26.183 107.09 22.3715 104.109 18.0424 102.861L18.5965 100.939C23.4394 102.335 27.7104 105.674 30.1483 110.537L28.3604 111.434ZM29.0566 124.829C30.6461 120.614 30.5376 115.776 28.3604 111.434L30.1483 110.537C32.5859 115.4 32.7062 120.819 30.928 125.535L29.0566 124.829ZM19.9514 115.648C22.1287 119.991 25.9402 122.973 30.2693 124.221L29.7152 126.143C24.8723 124.746 20.6013 121.407 18.1634 116.544L19.9514 115.648ZM19.2552 102.253C17.6656 106.468 17.7742 111.305 19.9514 115.648L18.1634 116.544C15.7258 111.682 15.6056 106.263 17.3838 101.547L19.2552 102.253Z" fill="white" mask="url(#path-87-inside-43_1008_1289)"/>
<mask id="path-89-inside-44_1008_1289" fill="white">
<path fill-rule="evenodd" clip-rule="evenodd" d="M59.1089 108.569C56.9769 112.838 53.1364 116.239 48.1915 117.674C43.2471 119.108 38.1835 118.291 34.0976 115.825C36.2297 111.556 40.0701 108.155 45.015 106.72C49.9595 105.286 55.0231 106.103 59.1089 108.569Z"/>
</mask>
<path fill-rule="evenodd" clip-rule="evenodd" d="M59.1089 108.569C56.9769 112.838 53.1364 116.239 48.1915 117.674C43.2471 119.108 38.1835 118.291 34.0976 115.825C36.2297 111.556 40.0701 108.155 45.015 106.72C49.9595 105.286 55.0231 106.103 59.1089 108.569Z" fill="white"/>
<path d="M59.1089 108.569L59.6256 107.713L60.416 108.189L60.0036 109.015L59.1089 108.569ZM34.0976 115.825L33.581 116.682L32.7905 116.205L33.203 115.379L34.0976 115.825ZM47.9129 116.713C52.5788 115.36 56.2016 112.153 58.2143 108.122L60.0036 109.015C57.7521 113.524 53.6941 117.119 48.4702 118.634L47.9129 116.713ZM34.6143 114.969C38.4712 117.296 43.2476 118.067 47.9129 116.713L48.4702 118.634C43.2467 120.149 37.8958 119.285 33.581 116.682L34.6143 114.969ZM45.2936 107.681C40.6278 109.034 37.0049 112.242 34.9923 116.272L33.203 115.379C35.4545 110.87 39.5124 107.275 44.7364 105.76L45.2936 107.681ZM58.5923 109.425C54.7354 107.098 49.959 106.327 45.2936 107.681L44.7364 105.76C49.9599 104.245 55.3108 105.109 59.6256 107.713L58.5923 109.425Z" fill="white" mask="url(#path-89-inside-44_1008_1289)"/>
<mask id="path-91-inside-45_1008_1289" fill="white">
<path fill-rule="evenodd" clip-rule="evenodd" d="M29.2721 84.8287C33.5934 86.8538 37.0885 90.6081 38.6457 95.5155C40.2029 100.423 39.512 105.505 37.1491 109.651C32.8278 107.626 29.3327 103.872 27.7755 98.9646C26.2183 94.0574 26.9092 88.9748 29.2721 84.8287Z"/>
</mask>
<path fill-rule="evenodd" clip-rule="evenodd" d="M29.2721 84.8287C33.5934 86.8538 37.0885 90.6081 38.6457 95.5155C40.2029 100.423 39.512 105.505 37.1491 109.651C32.8278 107.626 29.3327 103.872 27.7755 98.9646C26.2183 94.0574 26.9092 88.9748 29.2721 84.8287Z" fill="white"/>
<path d="M29.2721 84.8287L28.4033 84.3336L28.8604 83.5315L29.6965 83.9232L29.2721 84.8287ZM37.1491 109.651L38.0179 110.147L37.5608 110.949L36.7248 110.557L37.1491 109.651ZM37.6926 95.818C36.2233 91.1875 32.9269 87.6459 28.8478 85.7343L29.6965 83.9232C34.2598 86.0618 37.9538 90.0287 39.5989 95.213L37.6926 95.818ZM36.2803 109.156C38.5108 105.242 39.1619 100.448 37.6926 95.818L39.5989 95.213C41.244 100.397 40.5132 105.768 38.0179 110.147L36.2803 109.156ZM28.7286 98.6622C30.1979 103.293 33.4943 106.834 37.5734 108.746L36.7248 110.557C32.1614 108.418 28.4674 104.451 26.8223 99.2671L28.7286 98.6622ZM30.1409 85.3239C27.9104 89.2377 27.2593 94.0319 28.7286 98.6622L26.8223 99.2671C25.1772 94.0829 25.908 88.7119 28.4033 84.3336L30.1409 85.3239Z" fill="white" mask="url(#path-91-inside-45_1008_1289)"/>
<mask id="path-93-inside-46_1008_1289" fill="white">
<path fill-rule="evenodd" clip-rule="evenodd" d="M68.3215 94.9495C65.7237 98.9529 61.526 101.901 56.4514 102.772C51.3771 103.642 46.437 102.262 42.6536 99.353C45.2514 95.3496 49.4491 92.4014 54.5237 91.5309C59.598 90.6604 64.5381 92.041 68.3215 94.9495Z"/>
</mask>
<path fill-rule="evenodd" clip-rule="evenodd" d="M68.3215 94.9495C65.7237 98.9529 61.526 101.901 56.4514 102.772C51.3771 103.642 46.437 102.262 42.6536 99.353C45.2514 95.3496 49.4491 92.4014 54.5237 91.5309C59.598 90.6604 64.5381 92.041 68.3215 94.9495Z" fill="white"/>
<path d="M68.3215 94.9495L68.931 94.1566L69.6629 94.7193L69.1604 95.4938L68.3215 94.9495ZM42.6536 99.353L42.0441 100.146L41.3122 99.5832L41.8147 98.8087L42.6536 99.353ZM56.2823 101.786C61.0705 100.965 65.0304 98.1843 67.4826 94.4051L69.1604 95.4938C66.417 99.7215 61.9814 102.838 56.6204 103.757L56.2823 101.786ZM43.2631 98.5602C46.8345 101.306 51.4944 102.607 56.2823 101.786L56.6204 103.757C51.2597 104.677 46.0395 103.217 42.0441 100.146L43.2631 98.5602ZM54.6928 92.5165C49.9046 93.3378 45.9447 96.1182 43.4925 99.8974L41.8147 98.8087C44.558 94.581 48.9937 91.4649 54.3546 90.5453L54.6928 92.5165ZM67.712 95.7423C64.1406 92.9967 59.4807 91.6952 54.6928 92.5165L54.3546 90.5453C59.7153 89.6257 64.9356 91.0852 68.931 94.1566L67.712 95.7423Z" fill="white" mask="url(#path-93-inside-46_1008_1289)"/>
<mask id="path-95-inside-47_1008_1289" fill="white">
<path fill-rule="evenodd" clip-rule="evenodd" d="M38.925 69.9605C43.044 72.3702 46.1832 76.4267 47.2877 81.4553C48.3921 86.4838 47.2418 91.4824 44.5118 95.3964C40.3927 92.9867 37.2535 88.9302 36.149 83.9016C35.0446 78.8731 36.1949 73.8745 38.925 69.9605Z"/>
</mask>
<path fill-rule="evenodd" clip-rule="evenodd" d="M38.925 69.9605C43.044 72.3702 46.1832 76.4267 47.2877 81.4553C48.3921 86.4838 47.2418 91.4824 44.5118 95.3964C40.3927 92.9867 37.2535 88.9302 36.149 83.9016C35.0446 78.8731 36.1949 73.8745 38.925 69.9605Z" fill="white"/>
<path d="M38.925 69.9605L38.1048 69.3884L38.633 68.6311L39.4299 69.0973L38.925 69.9605ZM44.5118 95.3964L45.3319 95.9685L44.8037 96.7257L44.0068 96.2595L44.5118 95.3964ZM46.311 81.6698C45.2688 76.925 42.3083 73.0983 38.42 70.8236L39.4299 69.0973C43.7798 71.642 47.0976 75.9284 48.2644 81.2408L46.311 81.6698ZM43.6916 94.8243C46.2687 91.1296 47.3531 86.4145 46.311 81.6698L48.2644 81.2408C49.4312 86.553 48.215 91.8352 45.3319 95.9685L43.6916 94.8243ZM37.1258 83.6871C38.1679 88.4318 41.1284 92.2586 45.0167 94.5332L44.0068 96.2595C39.657 93.7149 36.3391 89.4285 35.1723 84.1161L37.1258 83.6871ZM39.7451 70.5326C37.168 74.2273 36.0836 78.9424 37.1258 83.6871L35.1723 84.1161C34.0055 78.8038 35.2217 73.5217 38.1048 69.3884L39.7451 70.5326Z" fill="white" mask="url(#path-95-inside-47_1008_1289)"/>
<mask id="path-97-inside-48_1008_1289" fill="white">
<path fill-rule="evenodd" clip-rule="evenodd" d="M55.637 57.3077C58.8838 60.8051 60.7166 65.5959 60.3204 70.7291C59.9243 75.8621 57.3784 80.3149 53.6336 83.2727C50.3867 79.7753 48.554 74.9845 48.9501 69.8513C49.3463 64.7183 51.8922 60.2655 55.637 57.3077Z"/>
</mask>
<path fill-rule="evenodd" clip-rule="evenodd" d="M55.637 57.3077C58.8838 60.8051 60.7166 65.5959 60.3204 70.7291C59.9243 75.8621 57.3784 80.3149 53.6336 83.2727C50.3867 79.7753 48.554 74.9845 48.9501 69.8513C49.3463 64.7183 51.8922 60.2655 55.637 57.3077Z" fill="white"/>
<path d="M55.637 57.3077L55.0172 56.5229L55.7417 55.9507L56.3698 56.6273L55.637 57.3077ZM53.6336 83.2727L54.2534 84.0575L53.5289 84.6297L52.9007 83.9531L53.6336 83.2727ZM59.3234 70.6522C59.6972 65.8086 57.9691 61.2895 54.9041 57.988L56.3698 56.6273C59.7986 60.3206 61.736 65.3831 61.3175 70.806L59.3234 70.6522ZM53.0138 82.488C56.5488 79.6959 58.9496 75.4955 59.3234 70.6522L61.3175 70.806C60.899 76.2288 58.208 80.9339 54.2534 84.0575L53.0138 82.488ZM49.9472 69.9282C49.5734 74.7717 51.3015 79.2909 54.3665 82.5924L52.9007 83.9531C49.472 80.2598 47.5346 75.1973 47.9531 69.7744L49.9472 69.9282ZM56.2568 58.0924C52.7218 60.8845 50.3209 65.0849 49.9472 69.9282L47.9531 69.7744C48.3716 64.3516 51.0626 59.6465 55.0172 56.5229L56.2568 58.0924Z" fill="white" mask="url(#path-97-inside-48_1008_1289)"/>
<mask id="path-99-inside-49_1008_1289" fill="white">
<path fill-rule="evenodd" clip-rule="evenodd" d="M78.7794 82.5216C75.1586 79.4128 70.3001 77.7673 65.186 78.3624C60.072 78.9574 55.7213 81.6744 52.911 85.5315C56.5318 88.6403 61.3903 90.2858 66.5044 89.6907C71.6184 89.0957 75.9692 86.3787 78.7794 82.5216Z"/>
</mask>
<path fill-rule="evenodd" clip-rule="evenodd" d="M78.7794 82.5216C75.1586 79.4128 70.3001 77.7673 65.186 78.3624C60.072 78.9574 55.7213 81.6744 52.911 85.5315C56.5318 88.6403 61.3903 90.2858 66.5044 89.6907C71.6184 89.0957 75.9692 86.3787 78.7794 82.5216Z" fill="white"/>
<path d="M78.7794 82.5216L79.4308 81.7629L80.1313 82.3644L79.5876 83.1105L78.7794 82.5216ZM52.911 85.5315L52.2596 86.2902L51.5591 85.6887L52.1028 84.9426L52.911 85.5315ZM78.128 83.2804C74.71 80.3457 70.1271 78.7942 65.3016 79.3557L65.0704 77.3691C70.4732 76.7404 75.6072 78.4799 79.4308 81.7629L78.128 83.2804ZM65.3016 79.3557C60.4762 79.9171 56.3721 82.4794 53.7192 86.1203L52.1028 84.9426C55.0705 80.8695 59.6678 77.9977 65.0704 77.3691L65.3016 79.3557ZM53.5625 84.7727C56.9804 87.7074 61.5633 89.2589 66.3888 88.6974L66.62 90.684C61.2172 91.3127 56.0833 89.5732 52.2596 86.2902L53.5625 84.7727ZM66.3888 88.6974C71.2142 88.136 75.3184 85.5737 77.9712 81.9328L79.5876 83.1105C76.6199 87.1836 72.0226 90.0554 66.62 90.684L66.3888 88.6974Z" fill="white" mask="url(#path-99-inside-49_1008_1289)"/>
<mask id="path-101-inside-50_1008_1289" fill="white">
<path fill-rule="evenodd" clip-rule="evenodd" d="M69.7523 49.6256C72.137 52.8266 73.2291 56.9756 72.4368 61.2084C71.6445 65.4411 69.1257 68.9142 65.7449 71.0359C63.3602 67.8349 62.2682 63.6859 63.0605 59.4531C63.8528 55.2204 66.3715 51.7474 69.7523 49.6256Z"/>
</mask>
<path fill-rule="evenodd" clip-rule="evenodd" d="M69.7523 49.6256C72.137 52.8266 73.2291 56.9756 72.4368 61.2084C71.6445 65.4411 69.1257 68.9142 65.7449 71.0359C63.3602 67.8349 62.2682 63.6859 63.0605 59.4531C63.8528 55.2204 66.3715 51.7474 69.7523 49.6256Z" fill="white"/>
<path d="M69.7523 49.6256L69.2208 48.7786L70.0027 48.2879L70.5542 49.0282L69.7523 49.6256ZM65.7449 71.0359L66.2765 71.8829L65.4945 72.3736L64.943 71.6333L65.7449 71.0359ZM71.4538 61.0244C72.1927 57.0773 71.1753 53.2096 68.9504 50.2231L70.5542 49.0282C73.0986 52.4436 74.2655 56.874 73.4197 61.3924L71.4538 61.0244ZM65.2133 70.1889C68.3677 68.2093 70.715 64.9715 71.4538 61.0244L73.4197 61.3924C72.5739 65.9107 69.8838 69.6191 66.2765 71.8829L65.2133 70.1889ZM64.0434 59.6371C63.3046 63.5843 64.3219 67.4519 66.5468 70.4385L64.943 71.6333C62.3986 68.218 61.2318 63.7875 62.0775 59.2691L64.0434 59.6371ZM70.2839 50.4727C67.1295 52.4523 64.7822 55.69 64.0434 59.6371L62.0775 59.2691C62.9233 54.7508 65.6135 51.0425 69.2208 48.7786L70.2839 50.4727Z" fill="white" mask="url(#path-101-inside-50_1008_1289)"/>
<mask id="path-103-inside-51_1008_1289" fill="white">
<path fill-rule="evenodd" clip-rule="evenodd" d="M87.9794 71.6278C85.3995 74.6737 81.604 76.6744 77.3015 76.8582C72.9994 77.042 69.0474 75.3725 66.2172 72.5581C68.7972 69.5122 72.5926 67.5115 76.8951 67.3277C81.1972 67.144 85.1492 68.8135 87.9794 71.6278Z"/>
</mask>
<path fill-rule="evenodd" clip-rule="evenodd" d="M87.9794 71.6278C85.3995 74.6737 81.604 76.6744 77.3015 76.8582C72.9994 77.042 69.0474 75.3725 66.2172 72.5581C68.7972 69.5122 72.5926 67.5115 76.8951 67.3277C81.1972 67.144 85.1492 68.8135 87.9794 71.6278Z" fill="white"/>
<path d="M87.9794 71.6278L88.6845 70.9188L89.3391 71.5697L88.7425 72.2742L87.9794 71.6278ZM66.2172 72.5581L65.5121 73.2672L64.8575 72.6162L65.4542 71.9118L66.2172 72.5581ZM77.2589 75.8591C81.271 75.6877 84.8092 73.8234 87.2163 70.9815L88.7425 72.2742C85.9897 75.5241 81.937 77.6611 77.3442 77.8573L77.2589 75.8591ZM66.9224 71.849C69.563 74.4749 73.247 76.0305 77.2589 75.8591L77.3442 77.8573C72.7518 78.0535 68.5319 76.2701 65.5121 73.2672L66.9224 71.849ZM76.9378 68.3268C72.9256 68.4982 69.3874 70.3626 66.9803 73.2044L65.4542 71.9118C68.2069 68.6619 72.2596 66.5248 76.8524 66.3287L76.9378 68.3268ZM87.2743 72.3369C84.6336 69.7111 80.9496 68.1555 76.9378 68.3268L76.8524 66.3287C81.4449 66.1325 85.6647 67.9159 88.6845 70.9188L87.2743 72.3369Z" fill="white" mask="url(#path-103-inside-51_1008_1289)"/>
<mask id="path-105-inside-52_1008_1289" fill="white">
<path fill-rule="evenodd" clip-rule="evenodd" d="M98.6249 48.9481C98.0295 52.895 95.8509 56.591 92.2865 59.0074C88.7221 61.4238 84.4822 62.0792 80.5954 61.1709C81.1907 57.224 83.3694 53.528 86.9338 51.1115C90.4981 48.6951 94.7381 48.0398 98.6249 48.9481Z"/>
</mask>
<path fill-rule="evenodd" clip-rule="evenodd" d="M98.6249 48.9481C98.0295 52.895 95.8509 56.591 92.2865 59.0074C88.7221 61.4238 84.4822 62.0792 80.5954 61.1709C81.1907 57.224 83.3694 53.528 86.9338 51.1115C90.4981 48.6951 94.7381 48.0398 98.6249 48.9481Z" fill="white"/>
<path d="M98.6249 48.9481L98.8524 47.9743L99.7514 48.1843L99.6137 49.0972L98.6249 48.9481ZM80.5954 61.1709L80.3678 62.1447L79.4689 61.9346L79.6066 61.0218L80.5954 61.1709ZM91.7254 58.1797C95.0493 55.9263 97.0806 52.4814 97.6361 48.7989L99.6137 49.0972C98.9785 53.3085 96.6526 57.2557 92.8476 59.8351L91.7254 58.1797ZM80.8229 60.1972C84.4494 61.0446 88.4015 60.433 91.7254 58.1797L92.8476 59.8351C89.0428 62.4146 84.515 63.1138 80.3678 62.1447L80.8229 60.1972ZM87.4949 51.9393C84.171 54.1926 82.1397 57.6375 81.5842 61.3201L79.6066 61.0218C80.2418 56.8105 82.5677 52.8633 86.3726 50.2838L87.4949 51.9393ZM98.3973 49.9218C94.7709 49.0744 90.8187 49.6859 87.4949 51.9393L86.3726 50.2838C90.1775 47.7044 94.7053 47.0052 98.8524 47.9743L98.3973 49.9218Z" fill="white" mask="url(#path-105-inside-52_1008_1289)"/>
<path d="M171.68 115.4V191H163.16L112.88 118.4V182.6C112.88 185.72 114.2 186.92 116.36 186.92H124.16V191H97.4V186.92H104.36C106.52 186.92 107.84 185.72 107.84 182.6V115.4C107.84 112.28 106.52 111.08 104.36 111.08H97.4V107H118.16L166.64 176.48V115.4C166.64 112.28 165.32 111.08 163.28 111.08H155.6V107H182.12V111.08H175.28C173.12 111.08 171.68 112.28 171.68 115.4Z" fill="white"/>
<path fill-rule="evenodd" clip-rule="evenodd" d="M118.881 52.5131V61.0985L111.522 64.1647L125.626 69.3772L129.919 66.0044L131.759 67.8441V70.2971L134.211 70.6037L140.651 76.7361L151.076 86.8546H153.222L152.915 83.7884L155.368 80.7222H156.901V78.8825L149.542 72.1368L148.316 72.7501V73.9765L145.556 76.7361L136.664 68.1508V66.0044L134.211 65.6978L132.065 63.8581L136.664 59.2588L130.839 45.4609L128.079 53.1264L118.881 52.5131ZM132.985 59.5654C132.739 59.8107 128.181 64.1647 125.932 66.311L119.8 64.4713L124.093 62.6316V57.1124H129.918L131.145 52.8197L132.985 59.5654ZM148.381 78.9104L151.141 75.8442L150.398 75.1752L147.638 78.2414L148.381 78.9104ZM154.207 78.2972L151.447 81.3634L150.704 80.6944L153.463 77.6282L154.207 78.2972Z" fill="white"/>
<path fill-rule="evenodd" clip-rule="evenodd" d="M159.355 52.5132V61.0986L166.714 64.1648L152.609 69.3773L148.317 66.0045L146.477 67.8442V70.2972L144.024 70.6038L137.585 76.7362L127.16 86.8546H125.013L125.32 83.7884L122.867 80.7222H121.334V78.8825L128.693 72.1369L129.919 72.7501V73.9766L132.679 76.7362L141.571 68.1508V66.0045L144.024 65.6979L146.17 63.8581L141.571 59.2588L147.397 45.4609L150.156 53.1264L159.355 52.5132ZM145.251 59.5654C145.496 59.8107 150.055 64.1647 152.303 66.311L158.436 64.4713L154.143 62.6316V57.1124H148.317L147.091 52.8198L145.251 59.5654ZM129.854 78.9104L127.095 75.8442L127.838 75.1752L130.598 78.2414L129.854 78.9104ZM124.028 78.2972L126.788 81.3634L127.531 80.6944L124.771 77.6282L124.028 78.2972Z" fill="white"/>
<path d="M162.643 35.2239C147.313 31.3727 131.278 31.2941 115.911 34.9948L116.844 38.8661C131.585 35.316 146.967 35.3914 161.673 39.0858L162.643 35.2239Z" fill="white"/>
<path d="M161.413 39.8293C146.85 36.3706 131.688 36.3003 117.093 39.6239L117.533 41.5547C131.832 38.2984 146.688 38.3673 160.956 41.756L161.413 39.8293Z" fill="white"/>
<path fill-rule="evenodd" clip-rule="evenodd" d="M115.817 33.5027L102.938 8.97313L125.015 16.9453L139.12 0.694397L153.224 16.9453L175.914 8.97313L163.649 32.8895L157.517 32.2762L163.649 19.3982L149.238 24.9174L139.12 12.346L128.695 24.3041L113.977 18.785L121.029 32.2762L115.817 33.5027ZM139.81 4.36039L139.421 3.89359L139.037 4.36518L127.307 18.8025L112.314 13.1051C112.056 13.007 111.767 13.1367 111.669 13.3948C111.571 13.653 111.701 13.9418 111.959 14.0398L127.29 19.8656L127.628 19.994L127.855 19.7135L139.43 5.46737L151.306 19.7183L151.535 19.9931L151.869 19.8652L166.28 14.346C166.538 14.2472 166.667 13.9581 166.568 13.7003C166.47 13.4424 166.18 13.3134 165.923 13.4121L151.845 18.8034L139.81 4.36039Z" fill="white"/>
<path d="M11.44 310V308.912H13.296C13.872 308.912 14.224 308.592 14.224 307.76V289.84C14.224 289.008 13.872 288.688 13.296 288.688H11.44V287.6H20.56V288.688H18.096C17.52 288.688 17.168 289.008 17.168 289.84V307.376C17.168 308.688 17.36 308.912 21.264 308.912C27.472 308.912 27.696 308.368 28.08 301.52H29.296V310H11.44ZM42.5648 310.32C37.7968 310.32 34.1808 308.464 34.1808 302.512V289.84C34.1808 289.008 33.8288 288.688 33.2528 288.688H31.4608V287.6H40.0368V288.688H38.0848C37.5088 288.688 37.1568 289.008 37.1568 289.84V301.904C37.1568 306.768 38.7568 308.88 43.0768 308.88C47.2368 308.88 49.2847 307.056 49.2847 301.904V289.84C49.2847 289.008 48.9328 288.688 48.3568 288.688H46.4368V287.6H53.3808V288.688H51.5888C51.0448 288.688 50.6928 289.008 50.6928 289.84V302.096C50.6928 308.784 46.7568 310.32 42.5648 310.32ZM62.0223 308.912V310H54.9183V308.912H55.8143C56.7743 308.912 57.5423 308.496 58.9183 306.576L64.5823 298.704L59.2383 291.024C57.8943 289.072 57.2223 288.688 56.0703 288.688H55.4943V287.6H64.4223V288.688H62.8223C61.6063 288.688 61.7343 289.488 62.4062 290.448L66.7263 296.784L71.3343 290.448C72.2623 289.168 72.3263 288.688 70.1183 288.688H69.4783V287.6H76.2623V288.688H75.3663C74.4062 288.688 73.8623 289.136 72.4862 291.024L67.5263 297.872L73.5743 306.576C74.9183 308.528 75.5903 308.912 76.7423 308.912H77.3183V310H68.4223V308.912H69.9903C71.2063 308.912 71.1103 308.112 70.4383 307.152L65.3823 299.824L60.0703 307.152C59.1423 308.432 59.0783 308.912 61.2863 308.912H62.0223ZM89.9085 310.32C85.1405 310.32 81.5245 308.464 81.5245 302.512V289.84C81.5245 289.008 81.1725 288.688 80.5965 288.688H78.8045V287.6H87.3805V288.688H85.4285C84.8525 288.688 84.5005 289.008 84.5005 289.84V301.904C84.5005 306.768 86.1005 308.88 90.4205 308.88C94.5805 308.88 96.6285 307.056 96.6285 301.904V289.84C96.6285 289.008 96.2765 288.688 95.7005 288.688H93.7805V287.6H100.725V288.688H98.9325C98.3885 288.688 98.0365 289.008 98.0365 289.84V302.096C98.0365 308.784 94.1005 310.32 89.9085 310.32ZM103.19 288.688V287.6H112.63C118.934 287.6 122.006 289.744 122.006 293.648C122.006 296.272 120.502 298.32 116.918 299.216C119.862 299.76 121.622 301.424 121.622 304.144V306.736C121.622 308.4 121.942 308.944 122.614 308.944C123.318 308.944 123.638 308.528 123.638 307.376V305.616H124.822V307.44C124.822 309.328 123.926 310.32 121.878 310.32C119.926 310.32 118.646 309.424 118.646 306.704V304.624C118.646 301.008 116.982 299.76 112.758 299.76H108.918V307.76C108.918 308.592 109.27 308.912 109.846 308.912H111.766V310H103.19V308.912H105.046C105.622 308.912 105.974 308.592 105.974 307.76V289.84C105.974 289.008 105.622 288.688 105.046 288.688H103.19ZM111.67 288.688H108.918V298.672H111.894C117.334 298.672 118.902 296.72 118.902 293.744C118.902 290.64 117.334 288.688 111.67 288.688ZM139.467 308.912V310H130.347V308.912H132.523C133.195 308.912 133.451 308.592 133.451 307.76V299.888L126.699 290.032C125.963 288.944 125.674 288.688 124.491 288.688H123.883V287.6H132.395V288.688H131.051C129.803 288.688 129.611 289.264 130.571 290.64L135.851 298.224L141.067 290.64C142.059 289.168 141.771 288.688 140.619 288.688H139.083V287.6H145.931V288.688H145.323C144.235 288.688 143.659 289.072 142.827 290.224L136.395 299.504V307.76C136.395 308.592 136.651 308.912 137.323 308.912H139.467ZM154.034 287.6H162.354V288.688H160.69C160.114 288.688 159.762 289.008 159.762 289.84V297.776H172.114V289.84C172.114 289.008 171.762 288.688 171.154 288.688H169.522V287.6H177.81V288.688H175.986C175.41 288.688 175.058 289.008 175.058 289.84V307.76C175.058 308.592 175.41 308.912 175.986 308.912H177.81V310H169.522V308.912H171.154C171.762 308.912 172.114 308.592 172.114 307.76V298.928H159.762V307.76C159.762 308.592 160.114 308.912 160.69 308.912H162.354V310H154.034V308.912H155.89C156.466 308.912 156.818 308.592 156.818 307.76V289.84C156.818 289.008 156.466 288.688 155.89 288.688H154.034V287.6ZM203.025 298.8C203.025 305.744 198.705 310.32 192.209 310.32C185.681 310.32 181.361 305.744 181.361 298.8C181.361 291.856 185.681 287.28 192.209 287.28C198.705 287.28 203.025 291.856 203.025 298.8ZM184.625 298.768C184.625 305.52 187.377 309.232 192.241 309.232C197.105 309.232 199.793 305.52 199.793 298.768C199.793 292.08 197.041 288.368 192.209 288.368C187.345 288.368 184.625 292.08 184.625 298.768ZM220.201 308.912V310H210.921V308.912H213.161C213.737 308.912 214.089 308.592 214.089 307.76V288.688H212.521C207.977 288.688 207.401 289.136 207.081 294.896H205.865V287.6H225.257V294.896H224.041C223.721 289.136 223.145 288.688 218.601 288.688H217.033V307.76C217.033 308.592 217.385 308.912 217.961 308.912H220.201ZM233.324 297.808H237.196C238.86 297.808 239.724 297.328 239.724 295.504V294.448H240.876V302.192H239.724V301.136C239.724 299.344 238.86 298.864 237.196 298.864H233.324V307.568C233.324 308.592 233.676 308.912 236.492 308.912H238.732C243.596 308.912 244.3 308.336 244.62 302.704H245.836V310H227.596V308.912H229.452C230.028 308.912 230.38 308.592 230.38 307.76V289.84C230.38 289.008 230.028 288.688 229.452 288.688H227.596V287.6H245.836V294.736H244.62C244.3 289.104 243.596 288.688 238.732 288.688H233.324V297.808ZM249.753 310V308.912H251.609C252.185 308.912 252.536 308.592 252.536 307.76V289.84C252.536 289.008 252.185 288.688 251.609 288.688H249.753V287.6H258.873V288.688H256.409C255.833 288.688 255.481 289.008 255.481 289.84V307.376C255.481 308.688 255.673 308.912 259.577 308.912C265.785 308.912 266.009 308.368 266.392 301.52H267.609V310H249.753Z" fill="white"/>
</svg>
