<svg width="68" height="85" viewBox="0 0 68 85" fill="none" xmlns="http://www.w3.org/2000/svg">
<rect x="0.5" y="0.5" width="67" height="84" stroke="white"/>
<rect x="8.5" y="10.5" width="51" height="64" stroke="white"/>
<path d="M22.9 36H28.2V36.68H27.06C26.7 36.68 26.48 36.88 26.48 37.4V48.6C26.48 49.12 26.7 49.32 27.06 49.32H28.2V50H22.9V49.32H24.06C24.42 49.32 24.64 49.12 24.64 48.6V37.4C24.64 36.88 24.42 36.68 24.06 36.68H22.9V36Z" fill="white"/>
<path d="M30.9 36H36.2V36.68H35.06C34.7 36.68 34.48 36.88 34.48 37.4V48.6C34.48 49.12 34.7 49.32 35.06 49.32H36.2V50H30.9V49.32H32.06C32.42 49.32 32.64 49.12 32.64 48.6V37.4C32.64 36.88 32.42 36.68 32.06 36.68H30.9V36Z" fill="white"/>
<path d="M38.9 36H44.2V36.68H43.06C42.7 36.68 42.48 36.88 42.48 37.4V48.6C42.48 49.12 42.7 49.32 43.06 49.32H44.2V50H38.9V49.32H40.06C40.42 49.32 40.64 49.12 40.64 48.6V37.4C40.64 36.88 40.42 36.68 40.06 36.68H38.9V36Z" fill="white"/>
</svg>
