<svg width="20" height="20" viewBox="0 0 20 20" fill="none" xmlns="http://www.w3.org/2000/svg">
<g clip-path="url(#clip0_316_2318)">
<path d="M10 0C7.34844 0 4.80312 1.05422 2.92969 2.92891C1.05433 4.80435 0.000536638 7.34779 0 10C0 12.6511 1.05469 15.1964 2.92969 17.0711C4.80312 18.9458 7.34844 20 10 20C12.6516 20 15.1969 18.9458 17.0703 17.0711C18.9453 15.1964 20 12.6511 20 10C20 7.34891 18.9453 4.80359 17.0703 2.92891C15.1969 1.05422 12.6516 0 10 0Z" fill="url(#paint0_linear_316_2318)"/>
<path d="M4.52645 9.89404C7.44208 8.62404 9.38583 7.78675 10.3577 7.38217C13.1358 6.22701 13.7124 6.02639 14.089 6.01959C14.1718 6.01826 14.3561 6.03873 14.4765 6.136C14.5765 6.21803 14.6046 6.32897 14.6186 6.40686C14.6311 6.48467 14.6483 6.66201 14.6343 6.80045C14.4843 8.3817 13.8327 12.2189 13.5015 13.99C13.3624 14.7394 13.0858 14.9906 12.8186 15.0151C12.2374 15.0686 11.7968 14.6314 11.2343 14.2628C10.3546 13.6858 9.85771 13.3267 9.00302 12.7637C8.01552 12.1131 8.65614 11.7554 9.21864 11.1711C9.36552 11.0181 11.9249 8.69076 11.9733 8.47967C11.9796 8.45326 11.9858 8.35482 11.9265 8.30295C11.8686 8.25092 11.7827 8.26873 11.7202 8.28279C11.6311 8.30279 10.2265 9.23217 7.50145 11.0708C7.10302 11.3448 6.74208 11.4784 6.41708 11.4714C6.06083 11.4637 5.37333 11.2695 4.86239 11.1036C4.23739 10.9 3.73895 10.7923 3.7827 10.4465C3.80458 10.2665 4.05302 10.0823 4.52645 9.89404Z" fill="white"/>
</g>
<defs>
<linearGradient id="paint0_linear_316_2318" x1="1000" y1="0" x2="1000" y2="2000" gradientUnits="userSpaceOnUse">
<stop stop-color="#2AABEE"/>
<stop offset="1" stop-color="#229ED9"/>
</linearGradient>
<clipPath id="clip0_316_2318">
<rect width="20" height="20" fill="white"/>
</clipPath>
</defs>
</svg>
